<?xml version="1.0" ?><svg width="120px" height="120px" viewBox="0 0 120 120" id="Layer_1" style="enable-background:new 0 0 120 120;" version="1.1" xml:space="preserve" xmlns="http://www.w3.org/2000/svg" xmlns:xlink="http://www.w3.org/1999/xlink"><style type="text/css">
	.st0{fill:#F4F4F4;}
	.st1{fill:#D0EDFF;}
	.st2{fill:#E6E8E6;}
	.st3{fill:#FFEFD3;}
	.st4{fill:#FFE593;}
	.st5{fill:#FFC78D;}
	.st6{fill:#9CD1FF;}
</style><g><rect class="st0" height="19.2" width="14.1" x="53" y="73.7"/><rect class="st0" height="19.2" width="14.1" x="53" y="64.1"/><path class="st1" d="M98.8,79.4H21.2c-1.5,0-2.6-1.2-2.6-2.6V26.6c0-1.5,1.2-2.6,2.6-2.6h77.7c1.5,0,2.6,1.2,2.6,2.6v50.1   C101.5,78.2,100.3,79.4,98.8,79.4z"/><path class="st0" d="M18.5,76.1c0,1.8,1.5,3.3,3.3,3.3h76.4c1.8,0,3.3-1.5,3.3-3.3v-8.2H18.5V76.1z"/><g><path class="st2" d="M76.1,89.7H43.9c-0.7,0-1.3,0.6-1.3,1.3v3.7c0,0.7,0.6,1.3,1.3,1.3h32.1c0.7,0,1.3-0.6,1.3-1.3V91    C77.4,90.3,76.8,89.7,76.1,89.7z"/><rect class="st2" height="2.4" width="14.1" x="53" y="79.4"/></g><g><rect class="st3" height="20.4" width="21.8" x="49.1" y="38.2"/><path class="st4" d="M61.2,46.4h-2.5c-0.8,0-1.5-0.7-1.5-1.5v-6.7h5.6v6.7C62.8,45.7,62.1,46.4,61.2,46.4z"/><path class="st5" d="M55.7,46.4h-2.5c-0.8,0-1.5-0.7-1.5-1.5v-6.7h5.6v6.7C57.2,45.7,56.5,46.4,55.7,46.4z"/><path class="st4" d="M50.1,46.4h-2.5c-0.8,0-1.5-0.7-1.5-1.5v-6.7h5.6v6.7C51.7,45.7,51,46.4,50.1,46.4z"/><path class="st5" d="M66.8,46.4h-2.5c-0.8,0-1.5-0.7-1.5-1.5v-6.7h5.6v6.7C68.3,45.7,67.6,46.4,66.8,46.4z"/><path class="st4" d="M72.4,46.4h-2.5c-0.8,0-1.5-0.7-1.5-1.5v-6.7h5.6v6.7C73.8,45.7,73.2,46.4,72.4,46.4z"/><rect class="st6" height="8.1" width="5.3" x="53.3" y="50.6"/><g><rect class="st6" height="2.4" width="1.8" x="62.6" y="53.8"/><rect class="st6" height="2.4" width="1.8" x="65.1" y="53.8"/><rect class="st6" height="2.4" width="1.8" x="62.6" y="50.6"/><rect class="st6" height="2.4" width="1.8" x="65.1" y="50.6"/></g></g></g></svg>