<?xml version="1.0" standalone="no"?>
<!DOCTYPE svg PUBLIC "-//W3C//DTD SVG 20010904//EN"
 "http://www.w3.org/TR/2001/REC-SVG-20010904/DTD/svg10.dtd">
<svg version="1.0" xmlns="http://www.w3.org/2000/svg"
 width="1080.000000pt" height="1080.000000pt" viewBox="0 0 1080.000000 1080.000000"
 preserveAspectRatio="xMidYMid meet">

<g transform="translate(0.000000,1080.000000) scale(0.100000,-0.100000)"
fill="#000000" stroke="none">
<path d="M0 5400 l0 -5400 1414 0 c1283 0 1414 1 1420 16 3 9 3 20 0 25 -3 5
2 34 11 65 17 60 15 74 -10 54 -13 -10 -15 -9 -15 7 0 10 4 23 9 29 6 5 25 41
44 79 19 39 46 82 58 96 54 58 99 118 99 132 0 31 28 41 83 29 29 -6 67 -11
86 -10 39 1 61 -21 61 -61 -1 -38 -28 -75 -129 -179 -28 -30 -36 -33 -52 -24
-26 17 -26 17 -55 -28 -20 -30 -26 -52 -26 -86 1 -26 -6 -60 -14 -76 l-16 -30
-24 23 c-13 12 -24 28 -24 36 0 28 -29 11 -44 -27 -30 -75 -48 -70 273 -70
l289 0 12 33 c33 84 64 147 72 147 23 0 18 -38 -13 -99 -19 -36 -35 -69 -37
-73 -2 -5 7 -8 20 -8 18 1 28 12 44 48 53 117 66 141 80 146 11 4 12 11 6 23
-5 10 -12 35 -15 56 -5 33 -3 39 22 52 29 14 111 101 111 116 0 12 62 39 90
39 14 0 43 3 65 6 177 22 613 32 659 14 17 -6 44 -6 78 0 69 13 282 13 428 0
63 -6 140 -10 171 -10 52 1 304 -36 322 -47 8 -5 170 -19 347 -30 84 -5 104
-10 148 -39 2 -1 -3 -15 -11 -31 -9 -17 -14 -51 -13 -85 2 -32 -1 -58 -5 -58
-32 0 -99 47 -99 70 0 15 -17 12 -47 -7 -25 -16 -26 -16 -45 7 -18 22 -20 22
-36 7 -14 -14 -14 -21 -4 -37 17 -27 16 -46 -1 -31 -15 12 -37 -3 -37 -27 0
-8 -9 -27 -21 -44 -24 -33 -56 -35 -73 -3 -6 11 -17 24 -24 28 -6 4 -12 24
-12 42 0 24 -5 35 -14 35 -8 0 -36 20 -63 45 -26 25 -53 45 -59 45 -7 0 -11
-14 -10 -32 1 -35 -7 -38 -86 -39 -16 0 -28 -3 -28 -6 0 -3 17 -21 38 -39 31
-27 35 -35 24 -46 -11 -11 -15 -10 -25 3 -7 9 -31 26 -54 37 -23 12 -48 31
-57 43 -12 17 -21 20 -43 15 -15 -4 -53 -9 -83 -12 -72 -6 -87 -11 -72 -26 14
-14 16 -28 3 -28 -5 0 -11 9 -14 20 -3 14 -14 20 -31 20 -14 0 -26 -4 -26 -9
0 -4 -13 -22 -30 -39 -31 -33 -46 -27 -36 14 4 13 3 24 -1 25 -5 1 -34 3 -65
5 -52 3 -58 1 -58 -16 0 -23 -4 -24 -31 -9 -17 8 -19 16 -13 42 3 18 11 35 17
38 5 4 7 14 4 23 -8 20 -56 21 -63 1 -4 -10 -14 -13 -30 -9 -13 3 -24 2 -24
-4 0 -16 -78 -43 -106 -36 -21 5 -25 3 -24 -12 4 -38 1 -45 -17 -35 -10 5 -39
12 -65 16 -44 7 -48 5 -48 -13 0 -32 -77 -45 -100 -17 -17 21 -63 19 -93 -5
-14 -11 -35 -20 -46 -20 -19 0 -20 3 -11 20 12 22 8 24 -45 20 -16 -1 -31 -5
-33 -10 -1 -4 -9 -15 -16 -25 -10 -14 -17 -15 -34 -6 -11 6 -24 20 -27 31 -7
21 -30 27 -40 10 -4 -6 -2 -17 4 -24 8 -9 8 -22 0 -45 -14 -40 -35 -35 -31 8
2 34 -5 38 -34 16 -10 -8 -25 -15 -31 -15 -24 0 -13 28 18 50 38 27 31 36 -15
20 -36 -12 -40 -17 -36 -57 1 -16 -17 -41 -59 -83 -33 -33 -64 -60 -67 -60 -3
0 -4 13 -2 29 4 25 2 28 -11 21 -9 -5 -23 -17 -31 -27 -47 -58 -76 -53 305
-53 310 0 347 2 341 16 -3 8 3 33 14 55 19 37 19 41 4 64 -15 23 -15 25 0 25
24 0 30 -26 18 -68 -6 -20 -14 -49 -17 -64 l-5 -28 3225 0 3225 0 0 5400 0
5400 -5400 0 -5400 0 0 -5400z m6535 5274 c39 -2 108 -9 155 -15 47 -6 118
-11 159 -10 73 1 176 -20 265 -55 26 -10 90 -17 195 -20 179 -7 264 -28 379
-95 37 -21 71 -39 76 -39 13 0 103 -68 173 -130 77 -69 145 -119 203 -150 40
-22 190 -107 230 -130 8 -5 47 -25 85 -45 85 -42 148 -79 210 -122 25 -18 48
-33 51 -33 3 0 32 -20 64 -45 32 -25 70 -49 84 -55 14 -5 36 -26 49 -47 14
-21 60 -72 103 -114 44 -43 124 -126 179 -185 114 -123 206 -214 216 -214 12
0 69 -61 69 -73 0 -7 31 -46 68 -89 37 -42 83 -99 102 -128 46 -68 95 -126
192 -230 44 -47 89 -103 100 -125 12 -22 37 -65 57 -95 57 -85 146 -249 169
-310 28 -77 82 -252 82 -267 0 -24 -17 -13 -45 27 -15 22 -36 40 -46 40 -10 0
-21 5 -24 10 -11 18 -35 10 -36 -12 -2 -23 -2 -23 -6 1 -3 13 -13 37 -24 55
-10 17 -19 42 -19 54 0 13 -10 32 -22 43 -24 19 -43 25 -34 10 3 -5 -3 -20
-14 -32 -14 -18 -19 -20 -20 -8 0 8 -10 25 -22 37 l-23 21 -2 -30 c-4 -66 -6
-80 -13 -84 -10 -6 -33 50 -28 67 3 7 -5 17 -16 23 -14 7 -22 22 -24 45 -4 34
-18 53 -34 44 -4 -3 -8 -12 -8 -20 0 -8 -8 -24 -18 -34 -18 -19 -18 -19 -34 8
-14 23 -38 128 -38 166 0 5 -8 2 -18 -7 -10 -10 -21 -17 -24 -17 -3 0 -13 19
-23 43 -9 23 -23 54 -31 69 -8 14 -14 38 -14 51 0 30 -18 45 -26 23 -12 -32
-34 -17 -34 22 0 39 -25 129 -41 146 -5 6 -9 -15 -9 -50 0 -44 6 -71 25 -107
14 -26 23 -52 20 -58 -11 -18 -32 9 -46 59 -14 50 -29 72 -51 72 -7 0 -25 23
-40 50 -19 34 -34 50 -48 50 -22 0 -26 -20 -8 -38 9 -9 10 -15 2 -20 -6 -4
-13 -14 -16 -22 -4 -11 -8 -8 -16 11 -6 15 -18 29 -28 33 -14 5 -16 2 -10 -26
3 -18 13 -38 21 -44 16 -12 20 -34 6 -34 -5 0 -14 7 -21 15 -7 8 -18 15 -25
15 -13 0 -25 43 -25 91 0 16 -4 29 -10 29 -5 0 -10 9 -10 21 0 11 -4 17 -10
14 -6 -4 -9 -14 -6 -23 10 -35 11 -182 1 -184 -10 -3 -34 136 -39 217 -2 47
-11 65 -32 65 -12 0 -15 -10 -13 -42 4 -53 -15 -61 -31 -13 -9 26 -22 40 -53
55 -37 18 -42 19 -58 4 -16 -14 -18 -14 -28 5 -6 11 -11 36 -11 55 0 20 -4 36
-10 36 -5 0 -10 -8 -10 -19 0 -10 -3 -39 -6 -65 -6 -42 -5 -46 15 -46 12 0 21
-6 21 -15 0 -20 -44 -65 -63 -65 -15 0 -27 66 -27 156 0 28 -3 65 -6 82 -5 26
-9 30 -24 22 -19 -10 -17 -42 3 -68 7 -8 5 -18 -7 -30 -10 -12 -16 -36 -16
-65 0 -26 -4 -47 -9 -47 -11 0 -21 72 -11 85 6 8 7 51 2 78 -4 17 -31 5 -34
-15 -2 -18 -9 -23 -31 -21 -15 1 -27 -2 -27 -8 0 -20 -21 -8 -31 19 l-11 27
-9 -24 c-6 -14 -8 -38 -7 -54 3 -28 2 -29 -45 -31 -51 -2 -67 -14 -67 -53 0
-24 -14 -31 -25 -13 -11 18 38 144 67 169 16 14 28 34 28 47 0 16 6 24 18 24
23 0 42 19 42 41 0 10 5 30 12 46 6 15 10 37 9 47 -2 15 2 18 18 13 25 -6 28
14 6 40 -8 10 -21 27 -29 38 -14 18 -15 18 -16 3 0 -10 5 -18 11 -18 5 0 7 -4
4 -10 -9 -15 -17 -12 -45 13 -32 28 -69 32 -85 10 -7 -10 -11 -22 -8 -26 3 -5
-4 -15 -16 -23 -17 -13 -19 -19 -10 -35 6 -12 8 -23 6 -26 -3 -2 -11 5 -17 17
-6 12 -17 19 -25 17 -16 -7 -35 12 -35 35 0 11 7 18 20 18 22 0 23 1 14 24 -8
20 -34 21 -34 1 0 -8 -5 -15 -11 -15 -7 0 -9 12 -5 34 5 23 2 37 -8 45 -18 15
-40 5 -32 -15 3 -8 1 -14 -4 -14 -5 0 -6 -17 -3 -37 5 -31 4 -35 -10 -30 -12
4 -17 -1 -19 -21 l-3 -26 -27 27 c-16 15 -28 34 -28 42 0 20 -19 19 -27 -1 -3
-8 3 -25 14 -37 27 -29 43 -62 42 -84 0 -14 -2 -15 -6 -3 -13 32 -43 39 -43
10 0 -20 -11 -26 -24 -13 -4 4 -25 13 -47 19 -35 11 -41 10 -51 -6 -11 -16
-14 -17 -35 -3 -12 8 -28 33 -35 55 -7 24 -22 45 -39 55 -16 10 -31 29 -35 46
-8 36 -2 42 28 26 22 -12 48 -20 48 -15 0 2 -5 18 -12 37 -12 35 -40 75 -95
135 -18 19 -33 41 -33 49 0 8 -7 15 -15 15 -9 0 -15 9 -15 21 0 30 -38 79 -61
79 -28 0 -23 -16 16 -54 19 -19 35 -36 35 -39 0 -2 -12 -2 -27 1 -15 3 -44 22
-64 44 -21 21 -42 38 -48 38 -12 0 -6 -107 7 -123 15 -18 35 -98 33 -132 0
-16 -6 -39 -12 -51 -8 -16 -7 -30 5 -59 28 -66 18 -72 -36 -22 -58 52 -68 59
-68 46 0 -6 14 -28 30 -49 17 -21 30 -41 30 -45 0 -4 -13 -5 -30 -1 -22 4 -30
2 -30 -9 0 -31 -19 -13 -44 39 -14 30 -26 68 -26 84 0 16 -9 37 -20 47 -11 10
-20 26 -20 35 0 20 -23 41 -63 58 -34 15 -31 32 6 45 37 12 59 -6 51 -40 -6
-21 -3 -24 12 -21 29 5 33 82 5 100 -20 12 -20 13 -1 23 19 10 19 13 5 30 -15
20 -16 20 -31 -1 -15 -22 -15 -22 -54 -3 -40 19 -60 39 -40 39 6 0 18 -7 27
-15 8 -8 19 -13 24 -10 19 12 8 44 -26 76 -19 19 -35 39 -35 47 0 9 -5 10 -17
4 -10 -5 -23 -7 -30 -5 -28 10 -21 -20 12 -52 25 -24 32 -35 21 -35 -9 0 -19
6 -22 14 -3 8 -22 22 -41 31 -29 14 -37 15 -44 4 -18 -29 -6 -67 26 -79 22 -8
73 -90 56 -90 -5 0 -26 19 -46 42 -28 33 -38 40 -45 29 -5 -8 -4 -25 1 -40 6
-14 7 -36 4 -49 -4 -16 4 -39 25 -74 18 -28 36 -62 41 -75 8 -21 7 -23 -16
-17 -15 4 -25 2 -25 -5 0 -6 -6 -11 -14 -11 -8 0 -17 -13 -21 -30 -4 -16 -15
-32 -26 -35 -10 -4 -19 -14 -19 -24 0 -10 -3 -20 -6 -24 -9 -9 -34 4 -34 18 0
7 -7 18 -15 25 -30 25 -16 -36 30 -126 46 -92 53 -118 34 -130 -16 -10 -30 17
-24 47 5 19 -2 34 -29 62 -39 42 -51 46 -43 16 8 -29 -3 -55 -15 -37 -5 8 -8
-6 -6 -39 1 -42 -3 -58 -20 -78 -12 -14 -26 -25 -31 -25 -4 0 -6 -12 -3 -26 3
-17 -2 -31 -16 -44 -28 -26 -82 -141 -82 -174 0 -14 -4 -26 -9 -26 -4 0 -15
-17 -22 -37 -14 -35 -15 -36 -32 -18 -12 11 -17 26 -13 39 3 12 11 46 17 76 7
30 16 58 21 61 10 6 26 62 35 118 4 23 14 38 34 50 19 10 29 24 29 39 0 13 6
36 14 50 56 105 73 149 69 177 -3 25 0 32 23 43 16 6 41 12 57 12 29 0 29 0
21 43 -4 23 -7 66 -6 95 2 32 -4 66 -12 84 -9 16 -18 45 -22 64 -3 19 -15 39
-25 45 -11 5 -19 20 -19 34 0 13 -5 27 -10 30 -19 12 -100 -45 -117 -81 -9
-19 -23 -34 -30 -34 -20 0 -16 44 7 73 11 14 20 30 20 36 0 7 11 37 24 69 27
66 43 152 27 152 -6 0 -14 -12 -17 -27 -15 -62 -70 -134 -88 -116 -9 9 -7 58
3 68 4 6 20 46 35 89 23 72 24 81 10 97 -41 46 -115 18 -94 -36 7 -19 5 -37
-6 -68 -9 -23 -16 -50 -16 -59 1 -10 -3 -20 -9 -23 -5 -4 -9 -18 -9 -32 0 -15
-7 -34 -16 -44 -9 -10 -13 -23 -9 -30 5 -6 9 -27 10 -45 2 -27 -2 -34 -17 -34
-10 0 -18 4 -18 9 0 5 -9 11 -20 14 -16 4 -18 2 -11 -11 10 -21 7 -48 -9 -67
-20 -24 -27 -18 -34 27 -5 32 -3 44 9 50 19 11 20 52 1 67 -8 7 -17 30 -21 52
-6 35 -3 43 23 70 32 33 33 54 1 64 -14 5 -18 15 -16 43 2 39 6 37 -73 46 -24
3 -25 6 -24 62 1 32 3 94 6 137 3 42 2 80 -2 82 -14 8 -39 -6 -45 -25 -3 -10
-14 -27 -25 -39 -21 -25 -37 -149 -26 -203 4 -21 1 -34 -8 -42 -8 -6 -17 -27
-20 -47 -6 -33 -4 -37 17 -43 29 -7 62 -83 54 -123 -6 -30 20 -92 46 -111 21
-16 47 -65 47 -89 0 -10 -15 5 -37 37 -41 61 -54 53 -28 -17 13 -34 14 -48 6
-56 -14 -14 -31 6 -31 38 0 11 -7 30 -15 42 -8 11 -18 47 -21 79 -8 68 -39
144 -58 144 -21 0 -91 110 -87 138 1 14 -10 49 -25 78 -23 44 -25 55 -15 68
17 21 67 21 75 0 3 -8 3 -26 0 -38 -5 -22 28 -77 40 -65 13 12 19 129 7 130
-25 3 -30 4 -36 10 -3 4 0 25 7 47 9 29 19 43 36 47 13 3 42 26 64 50 41 45
117 88 178 100 70 14 151 17 164 6 8 -7 65 -9 167 -6 227 7 343 5 381 -5 18
-6 50 -10 71 -10 53 0 161 -28 222 -56 28 -13 58 -24 66 -24 9 0 41 -11 70
-24 59 -26 166 -41 188 -27 17 11 7 41 -14 41 -9 0 -26 7 -38 15 -28 18 -170
65 -198 65 -11 0 -42 12 -70 26 -41 20 -53 23 -66 13 -12 -10 -19 -10 -35 0
-26 16 -121 41 -156 41 -16 0 -32 4 -37 9 -6 5 -20 12 -32 16 -17 5 -23 2 -23
-9 0 -20 -18 -30 -33 -19 -13 10 -91 28 -168 38 -26 3 -55 12 -65 20 -27 20
-41 18 -47 -6 -5 -20 -10 -21 -87 -14 -49 4 -85 3 -93 -3 -19 -15 -77 -25 -77
-13 0 6 -14 18 -31 26 l-31 17 7 -31 c8 -38 -10 -42 -44 -10 -23 21 -44 18
-23 -3 20 -20 13 -28 -25 -28 -21 0 -47 -7 -57 -15 -17 -13 -22 -13 -43 0 -21
14 -26 14 -62 -7 -35 -20 -44 -21 -71 -11 -28 10 -30 10 -25 -6 3 -10 1 -31
-5 -46 -8 -22 -15 -26 -36 -22 -19 3 -27 -1 -34 -17 -4 -11 -4 -26 1 -32 5 -7
9 -25 7 -40 -1 -16 6 -40 15 -54 11 -18 13 -30 6 -40 -8 -13 -12 -12 -28 8
-11 12 -21 22 -24 22 -3 0 -2 -30 0 -67 4 -49 12 -78 29 -104 13 -19 24 -45
24 -56 0 -12 6 -28 14 -35 16 -17 56 -93 56 -108 0 -12 -32 4 -69 35 -26 22
-26 23 12 -56 17 -36 34 -59 48 -62 19 -5 21 -10 15 -42 -6 -31 0 -52 44 -141
41 -82 50 -107 41 -118 -10 -12 -8 -13 7 -9 17 4 23 -5 41 -61 11 -36 21 -72
21 -81 0 -9 7 -18 15 -21 10 -4 15 -19 14 -48 -1 -22 -4 -32 -6 -22 -6 24 -32
51 -40 42 -4 -3 -1 -16 5 -29 6 -12 12 -31 14 -41 4 -24 28 -33 28 -11 0 14 3
15 15 5 8 -7 15 -18 15 -25 0 -6 6 -25 14 -41 20 -42 26 -77 17 -93 -7 -11
-14 -9 -39 9 -33 24 -51 62 -77 155 -17 61 -35 113 -61 173 -8 18 -14 47 -14
65 0 18 -11 50 -25 72 -13 22 -29 50 -35 63 -7 17 -15 22 -29 17 -22 -7 -33
22 -24 65 3 19 0 29 -11 33 -9 4 -16 13 -16 20 0 8 -9 22 -20 32 -11 10 -20
29 -20 42 0 14 -4 21 -10 18 -5 -3 -10 0 -10 8 0 7 -11 19 -25 25 -14 6 -25
17 -25 23 0 30 -158 196 -270 284 -34 27 -80 66 -102 85 -44 42 -147 87 -228
101 -190 33 -173 33 -195 6 -11 -13 -33 -28 -50 -32 -30 -7 -30 -7 -6 -16 13
-5 33 -7 44 -3 27 9 208 8 232 -1 57 -21 123 -59 135 -78 7 -12 19 -32 27 -44
14 -21 13 -22 -29 -34 -24 -7 -50 -18 -58 -25 -8 -7 -31 -15 -50 -17 -19 -3
-9 -4 23 -3 47 1 57 -2 57 -16 0 -26 17 -31 56 -16 34 12 38 11 48 -6 6 -11
19 -28 29 -38 24 -25 22 -33 -17 -58 -35 -21 -64 -79 -51 -100 8 -13 45 16 45
35 0 6 11 26 24 44 24 32 24 32 31 9 3 -13 11 -33 17 -45 8 -16 7 -26 -5 -44
-15 -21 -15 -23 5 -33 34 -17 42 -68 19 -114 -11 -22 -18 -48 -15 -58 4 -14
-9 -33 -45 -67 -54 -49 -61 -64 -35 -74 23 -9 124 100 124 135 0 15 16 48 35
75 34 46 49 55 59 39 7 -11 -51 -132 -64 -132 -16 0 -12 -28 5 -38 14 -7 13
-11 -5 -27 -11 -10 -20 -26 -20 -36 0 -11 -17 -25 -50 -40 -27 -12 -50 -29
-50 -36 0 -8 -14 -27 -31 -43 -19 -17 -28 -33 -24 -40 6 -9 20 0 47 30 24 25
45 40 53 36 8 -3 15 -1 15 4 0 6 9 10 21 10 13 0 25 11 34 33 8 17 36 56 63
85 48 51 78 63 110 44 19 -13 -23 -62 -54 -62 -13 0 -24 -3 -24 -7 0 -13 52
-33 87 -33 26 0 31 -3 26 -17 -13 -38 -76 -82 -88 -63 -9 14 -45 12 -45 -1 0
-7 -11 -9 -29 -6 -15 3 -33 1 -40 -6 -16 -16 -14 -30 4 -23 11 4 15 -1 15 -19
0 -41 53 -29 111 25 l34 31 17 -21 c12 -15 23 -19 42 -14 34 8 33 -6 -4 -46
-23 -25 -36 -31 -56 -27 -28 5 -70 -26 -59 -43 4 -6 2 -10 -4 -10 -5 0 -12 -9
-16 -20 -10 -32 -84 -80 -114 -74 -20 4 -34 -2 -59 -25 -44 -43 -42 -54 10
-46 23 4 49 11 58 16 8 4 27 10 42 14 15 3 41 19 58 35 17 17 32 30 35 30 15
0 35 -15 35 -27 0 -8 -4 -11 -10 -8 -5 3 -10 1 -10 -5 0 -7 7 -10 15 -6 13 4
35 -20 35 -38 0 -8 -81 -47 -110 -52 -32 -7 -36 -12 -22 -26 9 -9 15 -9 24 0
16 16 68 15 90 -1 29 -23 28 -122 -1 -158 -17 -20 -23 -22 -39 -12 -14 9 -22
9 -31 0 -18 -18 -13 -27 15 -27 14 0 34 -5 44 -10 16 -8 22 -6 36 15 20 31 81
36 91 8 4 -10 14 -23 22 -29 19 -15 2 -39 -34 -48 -14 -4 -25 -13 -25 -20 0
-8 -7 -17 -16 -20 -13 -5 -14 -9 -5 -20 9 -11 7 -15 -11 -19 -29 -8 -40 0 -33
24 5 16 1 19 -24 19 -17 0 -31 -2 -31 -5 0 -2 12 -16 26 -30 21 -21 34 -26 59
-23 20 2 31 0 29 -7 -7 -18 10 -33 41 -37 26 -4 27 -5 10 -12 -38 -14 -50 -23
-50 -37 0 -10 11 -13 35 -12 54 3 68 -5 41 -24 -16 -11 -37 -14 -70 -10 -62 6
-72 2 -60 -29 5 -14 9 -27 9 -30 0 -11 -34 -2 -59 17 -31 23 -66 22 -66 -1 0
-8 14 -19 30 -24 40 -13 40 -13 26 -30 -9 -11 -8 -15 4 -20 18 -6 20 -33 3
-38 -19 -7 1 -28 26 -28 16 0 26 7 29 21 4 16 10 19 29 14 34 -10 44 -23 14
-18 -25 5 -31 -2 -27 -34 1 -8 -9 -13 -24 -13 -27 0 -34 -17 -10 -26 8 -4 15
-11 15 -16 0 -17 -54 2 -75 26 -30 34 -77 42 -100 16 -10 -11 -28 -20 -39 -20
-12 0 -28 -4 -35 -9 -12 -8 -8 -11 15 -17 16 -4 45 -17 64 -29 19 -12 49 -25
65 -28 l30 -7 -25 15 c-17 9 -20 15 -10 16 8 1 -3 5 -25 8 -27 4 -41 12 -43
24 -3 14 4 17 37 17 28 0 41 -4 41 -14 0 -8 7 -16 15 -20 8 -3 15 -15 15 -27
0 -11 10 -29 23 -40 l22 -18 -26 -1 c-15 0 -29 7 -33 15 -6 16 -46 21 -46 5 0
-5 8 -14 18 -20 16 -10 15 -12 -5 -26 l-23 -16 34 -23 c43 -29 73 -39 81 -25
8 14 65 -16 65 -35 0 -45 -231 1 -348 69 -37 22 -35 23 40 14 109 -13 123 -8
58 23 -85 41 -109 49 -142 49 -25 0 -29 -3 -23 -17 12 -33 10 -38 -22 -41 -36
-4 -44 -19 -15 -28 9 -3 29 -12 44 -20 14 -8 40 -14 57 -14 17 0 31 -5 31 -11
0 -15 64 -39 104 -39 36 0 98 -39 64 -40 -10 0 -18 -5 -18 -11 0 -7 -11 -9
-32 -5 -65 13 -73 12 -76 -10 -2 -17 5 -22 48 -32 66 -15 70 -15 70 3 0 8 5
15 11 15 13 0 111 -41 123 -51 12 -11 -169 -2 -192 9 -9 5 -62 8 -116 6 -63
-2 -113 2 -138 10 -32 12 -38 11 -38 0 0 -8 5 -14 11 -14 5 0 8 -4 4 -9 -3 -5
-31 -15 -63 -21 -31 -6 -69 -20 -84 -31 -15 -10 -37 -17 -50 -15 -13 3 -38 5
-55 5 -18 1 -33 6 -33 12 0 6 12 9 28 8 27 -3 52 6 52 19 0 9 -95 32 -130 32
-22 0 -23 -1 -8 -16 12 -12 14 -24 8 -50 -10 -42 6 -54 61 -47 35 5 37 4 32
-16 -3 -12 -9 -24 -14 -27 -24 -14 -6 -26 31 -21 36 5 40 3 40 -18 0 -18 8
-24 42 -31 51 -11 64 -34 16 -30 -18 2 -40 5 -48 8 -8 3 -42 11 -75 18 -33 7
-71 21 -84 31 -13 11 -40 19 -60 19 -24 0 -42 7 -54 20 -20 23 -67 27 -67 6 0
-8 5 -18 10 -21 6 -3 10 -14 10 -23 0 -23 77 -72 112 -72 18 0 28 -5 28 -14 0
-26 -19 -28 -63 -8 -29 14 -62 20 -105 19 -40 0 -67 4 -71 12 -4 6 -37 14 -72
16 -221 15 -229 15 -229 0 0 -8 -7 -15 -15 -15 -8 0 -15 4 -15 9 0 5 7 11 15
15 35 13 10 24 -58 24 -40 -1 -82 4 -93 10 -17 9 -48 14 -166 27 -14 2 -35 8
-46 14 -29 15 -48 14 -68 -6 -9 -10 -31 -16 -51 -16 -61 2 -60 23 1 25 27 1
36 6 36 18 0 20 -58 34 -74 19 -22 -20 -65 -9 -88 21 -12 17 -28 28 -35 26 -7
-3 -13 0 -13 6 0 7 17 9 49 6 30 -3 55 0 65 8 11 7 32 10 52 7 33 -6 35 -5 30
21 -3 16 0 28 7 31 53 15 52 14 22 45 -20 21 -25 34 -20 47 5 10 7 24 6 31 -1
6 5 12 14 12 8 0 15 -3 15 -7 0 -5 30 -8 67 -8 54 0 68 3 71 16 4 20 -71 89
-97 89 -13 0 -27 17 -46 55 -20 42 -32 55 -49 55 -23 0 -38 37 -67 167 -11 48
-14 51 -46 55 -31 4 -37 0 -69 -44 -20 -26 -41 -48 -48 -48 -14 0 -56 -45 -56
-60 0 -24 -25 -60 -42 -60 -10 0 -18 5 -18 10 0 24 -27 7 -40 -25 -8 -19 -20
-35 -28 -35 -7 0 -20 -7 -28 -15 -9 -8 -20 -15 -25 -15 -15 0 -10 61 10 119
l19 54 -29 30 c-20 20 -30 25 -34 15 -2 -7 -9 -25 -14 -40 -6 -16 -25 -37 -43
-48 -28 -17 -34 -18 -48 -5 -22 20 -40 19 -40 -2 0 -12 -7 -8 -25 13 -14 16
-25 34 -25 40 0 6 -7 17 -15 24 -12 10 -16 8 -24 -11 -7 -19 -5 -26 10 -33 14
-6 19 -20 19 -46 0 -34 -3 -38 -30 -42 -21 -3 -38 2 -52 14 -12 10 -25 18 -30
18 -13 0 1 -63 16 -72 8 -5 7 -11 -2 -20 -9 -9 -20 -4 -52 30 -22 22 -40 46
-40 52 0 6 -4 8 -10 5 -13 -8 -13 -62 1 -67 5 -2 7 -11 3 -22 -5 -13 -9 -14
-14 -6 -5 9 -10 6 -15 -9 -5 -17 -12 -20 -31 -15 -20 5 -26 2 -31 -15 -3 -12
-11 -20 -18 -17 -8 3 -11 -2 -8 -15 5 -17 1 -18 -42 -12 -46 6 -48 5 -43 -15
5 -19 3 -21 -18 -16 -19 5 -24 2 -24 -14 0 -30 -86 -37 -118 -8 -17 15 -25 17
-34 8 -17 -17 -36 -15 -42 6 -4 11 -17 17 -36 18 -34 1 -83 41 -76 61 7 17
-11 26 -21 10 -4 -7 -26 -17 -48 -22 -36 -9 -40 -13 -40 -40 0 -40 12 -65 33
-66 11 -1 8 -4 -8 -9 -14 -4 -34 -5 -46 -3 -12 2 -28 -3 -37 -12 -18 -18 -37
-12 -37 11 0 17 -12 18 -28 2 -8 -8 -15 -8 -26 1 -8 7 -20 11 -28 10 -35 -4
-79 2 -73 11 3 6 1 10 -4 10 -6 0 -11 7 -11 15 0 11 -6 12 -22 6 -13 -4 -29
-6 -37 -3 -8 3 -11 0 -7 -7 4 -6 14 -11 21 -11 8 0 12 -6 9 -14 -3 -9 3 -17
15 -21 12 -3 21 -14 21 -24 0 -21 -23 -44 -33 -34 -4 3 -7 -5 -8 -18 l-1 -24
-8 25 -7 25 -6 -25 c-7 -30 -20 -82 -22 -92 -2 -5 -3 -11 -4 -15 0 -4 -10 3
-21 15 -23 25 -29 77 -12 109 15 27 15 46 2 38 -5 -3 -10 2 -10 12 0 10 -8 23
-19 30 -16 10 -22 7 -40 -17 -11 -16 -21 -33 -21 -39 0 -5 -7 -11 -15 -15 -8
-3 -15 -18 -15 -33 0 -15 -7 -46 -16 -70 -14 -36 -18 -40 -30 -28 -9 9 -14 37
-14 78 0 99 33 163 149 291 69 75 87 88 181 135 105 52 291 145 330 165 14 8
43 19 65 26 22 7 45 16 50 20 6 3 33 15 60 25 110 39 275 204 275 273 0 10 5
23 12 30 6 6 10 13 7 14 -2 2 -17 10 -34 18 -36 19 -44 46 -17 54 25 8 33 49
16 82 -18 34 -18 44 1 44 10 0 15 10 15 26 0 25 -2 26 -35 20 -21 -4 -44 -2
-57 5 -22 12 -22 12 12 25 19 7 44 13 55 13 11 1 31 10 45 21 22 17 23 22 13
39 -19 31 -16 34 23 28 54 -9 65 -1 48 31 -8 15 -14 35 -14 45 0 9 -4 17 -10
17 -5 0 -10 4 -10 9 0 6 12 6 30 0 17 -6 30 -15 30 -20 0 -5 9 -9 20 -9 24 0
24 -1 6 36 -8 16 -13 49 -12 74 1 36 5 45 21 48 11 2 31 16 45 30 21 22 25 36
25 87 l0 60 50 -2 c68 -3 124 22 132 58 3 15 11 30 19 33 8 3 14 14 14 24 0
12 12 23 34 32 22 8 37 22 41 37 5 21 10 24 35 18 26 -6 30 -4 30 14 0 23 31
44 53 35 8 -3 34 7 58 22 34 21 46 24 61 15 24 -15 39 -14 68 6 14 10 32 16
42 15 9 -2 19 2 23 8 9 15 25 12 25 -5 0 -8 5 -15 10 -15 6 0 10 9 10 20 0 13
7 20 20 20 10 0 24 9 30 20 6 11 16 20 23 20 16 0 37 51 47 110 7 43 7 42 9
-23 1 -43 -4 -79 -14 -97 -8 -16 -12 -36 -9 -44 9 -23 57 -20 79 4 10 11 36
23 57 26 23 4 38 12 38 21 0 8 14 19 30 24 31 11 38 23 19 35 -17 10 37 30
103 38 44 6 57 11 61 27 3 12 14 19 30 19 14 0 29 5 32 10 11 17 79 47 98 42
12 -2 17 3 17 17 0 12 6 21 15 21 7 0 18 8 24 17 8 15 13 16 33 5 21 -11 30
-10 73 14 28 15 75 49 104 76 30 26 60 48 67 48 7 0 34 20 60 45 47 45 194
148 230 162 10 4 43 24 74 45 54 39 82 48 342 122 70 20 146 45 170 57 38 18
55 19 148 13 58 -3 137 -8 175 -10z m-640 -784 c3 -5 1 -10 -4 -10 -6 0 -11 5
-11 10 0 6 2 10 4 10 3 0 8 -4 11 -10z m75 -35 c0 -8 -4 -15 -9 -15 -13 0 -22
16 -14 24 11 11 23 6 23 -9z m780 -309 c0 -3 -4 -8 -10 -11 -5 -3 -10 -1 -10
4 0 6 5 11 10 11 6 0 10 -2 10 -4z m260 -146 c0 -11 -4 -20 -9 -20 -4 0 -11
-29 -13 -63 -3 -36 -13 -76 -23 -90 -9 -15 -15 -32 -12 -39 2 -7 0 -21 -5 -31
-5 -11 -4 -32 3 -56 14 -46 6 -82 -14 -62 -9 9 -20 136 -17 206 1 35 26 143
33 142 5 -1 13 6 18 16 14 23 39 22 39 -3z m824 -5 c3 -8 1 -15 -3 -15 -5 0
-11 7 -15 15 -3 8 -1 15 3 15 5 0 11 -7 15 -15z m-774 -24 c0 -10 -7 -21 -15
-25 -16 -6 -19 3 -9 28 8 22 24 20 24 -3z m330 -12 c0 -6 -4 -7 -10 -4 -5 3
-10 11 -10 16 0 6 5 7 10 4 6 -3 10 -11 10 -16z m544 -11 c15 -25 29 -88 19
-88 -12 0 -43 44 -43 61 0 10 -4 21 -10 24 -15 9 -12 25 5 25 8 0 21 -10 29
-22z m-884 -33 c0 -8 -4 -15 -10 -15 -5 0 -10 7 -10 15 0 8 5 15 10 15 6 0 10
-7 10 -15z m-783 -251 c-3 -3 -12 -4 -19 -1 -8 3 -5 6 6 6 11 1 17 -2 13 -5z
m-47 -24 c0 -5 -5 -10 -11 -10 -5 0 -7 5 -4 10 3 6 8 10 11 10 2 0 4 -4 4 -10z
m63 -26 c11 -11 -5 -34 -24 -34 -22 0 -24 11 -7 28 13 13 22 15 31 6z m1094
-46 c-3 -7 -5 -2 -5 12 0 14 2 19 5 13 2 -7 2 -19 0 -25z m-430 -10 c-3 -7 -5
-2 -5 12 0 14 2 19 5 13 2 -7 2 -19 0 -25z m-614 -14 c8 -9 -11 -44 -23 -44
-6 0 -10 8 -10 18 0 27 18 41 33 26z m2392 -182 c-8 -8 -25 10 -25 26 0 13 2
13 14 -4 8 -10 13 -21 11 -22z m-2402 -36 c7 -17 -16 -28 -39 -19 -15 6 -15 8
2 20 23 17 31 16 37 -1z m2685 -14 c6 -18 -15 -14 -22 4 -4 10 -1 14 6 12 6
-2 14 -10 16 -16z m-1143 -79 c49 -14 130 -29 180 -34 61 -7 99 -16 117 -29
15 -11 30 -20 34 -20 3 0 20 -6 37 -14 45 -20 164 -62 217 -78 25 -7 64 -25
86 -40 23 -15 52 -28 65 -28 46 0 105 -22 175 -66 40 -24 75 -44 79 -44 5 0
23 -11 41 -25 18 -14 37 -25 42 -25 5 0 34 -23 63 -52 47 -46 110 -95 199
-156 14 -9 34 -28 45 -42 11 -14 27 -32 36 -40 9 -8 54 -51 101 -95 46 -44
124 -111 173 -150 108 -85 140 -114 308 -281 177 -176 189 -190 181 -232 -5
-25 -2 -36 12 -47 20 -14 13 -30 -14 -30 -25 0 -26 -31 -2 -55 21 -21 23 -21
41 -4 16 14 18 25 13 70 -8 61 5 71 33 27 10 -16 26 -38 38 -50 36 -38 45 -52
45 -68 0 -18 -26 -20 -34 -2 -3 6 -4 1 -3 -13 1 -19 11 -28 37 -36 19 -6 36
-19 38 -28 4 -20 -14 -21 -22 -1 -3 8 -10 15 -16 15 -17 0 -11 -43 10 -70 11
-14 20 -33 20 -42 0 -10 5 -37 11 -61 8 -27 9 -64 4 -102 l-8 -60 -13 37 c-7
20 -11 54 -9 75 4 45 -10 66 -38 57 -17 -5 -19 -2 -16 34 5 47 -12 69 -34 44
-11 -12 -14 -34 -12 -74 1 -40 -2 -58 -10 -58 -22 0 -38 47 -32 93 4 26 2 48
-5 55 -6 6 -10 36 -10 66 0 31 -4 58 -9 62 -5 3 -9 -6 -9 -20 0 -14 -7 -29
-15 -33 -13 -8 -14 -21 -5 -88 11 -88 6 -101 -35 -91 -26 7 -26 8 -11 25 14
15 15 23 5 44 -12 27 -33 28 -23 2 3 -8 3 -19 0 -24 -12 -18 -33 0 -51 42 -9
23 -23 56 -30 72 -8 17 -19 47 -26 68 -7 20 -16 37 -21 37 -4 0 -20 29 -37 64
-16 35 -34 67 -40 70 -6 4 -11 17 -11 29 0 29 -46 97 -66 97 -24 0 -40 46 -24
75 10 19 11 32 2 57 -8 23 -10 25 -7 7 4 -23 2 -25 -26 -21 -30 4 -59 42 -59
79 -1 22 -46 80 -56 71 -9 -9 34 -134 52 -148 8 -7 14 -23 14 -35 0 -12 6 -41
14 -63 8 -22 12 -42 10 -45 -3 -3 2 -19 10 -36 9 -16 16 -39 16 -51 0 -11 4
-20 8 -20 5 0 21 -27 35 -60 28 -62 55 -83 42 -32 -15 60 -17 92 -6 92 11 0
41 -51 41 -71 0 -7 7 -21 17 -31 15 -17 15 -18 0 -18 -27 0 -21 -51 13 -116
24 -44 28 -59 18 -66 -7 -4 -8 -8 -2 -8 12 0 60 -80 56 -96 -1 -6 5 -17 13
-24 8 -7 15 -21 15 -31 0 -11 4 -19 9 -19 5 0 12 -18 16 -39 4 -22 15 -57 26
-77 10 -21 15 -42 11 -46 -13 -13 -62 64 -62 94 0 15 -5 30 -10 33 -6 4 -21
28 -34 54 -14 26 -32 54 -42 61 -9 8 -28 32 -41 53 -19 31 -27 36 -38 27 -19
-16 -40 -3 -25 15 9 11 7 20 -7 39 -10 14 -24 26 -30 26 -15 0 -17 -16 -3 -25
6 -3 10 -13 10 -21 0 -11 -5 -10 -22 6 -12 11 -30 20 -40 20 -23 0 -45 39 -27
50 9 6 5 17 -18 43 -17 19 -33 41 -35 48 -10 31 -28 -6 -28 -59 0 -53 -2 -58
-31 -74 -40 -23 -48 -23 -60 5 -8 18 -9 14 -5 -20 2 -23 1 -44 -2 -47 -10 -11
-31 30 -32 62 0 32 -13 42 -26 21 -12 -20 -28 23 -29 79 -1 29 2 55 5 57 11 7
53 -92 45 -105 -5 -8 0 -7 14 2 22 14 27 33 12 43 -16 9 -25 93 -12 109 9 11
9 16 0 22 -7 4 -16 -1 -21 -10 -13 -22 -38 -3 -31 23 3 11 0 28 -6 40 -9 15
-8 26 1 41 19 29 31 24 53 -23 21 -45 42 -49 37 -7 -2 14 -3 53 -3 88 1 55 -1
62 -19 62 -15 0 -20 -7 -20 -29 0 -38 -9 -61 -25 -61 -13 0 -45 73 -45 103 0
9 -6 17 -14 17 -10 0 -15 -18 -18 -62 -3 -35 -8 -71 -13 -81 -5 -13 -4 -16 8
-11 13 4 15 -4 15 -50 0 -31 -5 -53 -9 -50 -5 3 -9 12 -9 20 0 9 -7 22 -15 30
-8 9 -15 24 -15 35 0 29 -18 23 -22 -8 -4 -34 -38 -46 -38 -13 0 11 -7 23 -15
26 -22 9 -18 41 5 54 14 7 26 8 39 0 13 -7 22 -7 26 0 9 15 -4 30 -26 30 -19
0 -25 11 -12 24 4 3 8 16 10 29 2 12 8 26 13 31 17 17 11 45 -10 56 -15 8 -19
17 -15 31 10 29 -14 79 -36 79 -15 0 -19 -8 -19 -40 0 -21 6 -51 12 -66 10
-22 10 -28 0 -32 -6 -2 -12 -10 -12 -18 0 -16 -45 -20 -55 -4 -3 5 -19 7 -35
3 -30 -5 -30 -5 -30 41 0 50 8 57 28 26 7 -12 17 -18 22 -15 14 9 11 84 -5
125 l-13 35 -1 -32 c-2 -72 -36 -24 -47 67 -7 56 -32 125 -45 125 -22 0 -22
-37 0 -101 21 -59 17 -80 -11 -69 -10 4 -18 25 -23 61 -6 54 -22 71 -32 34 -7
-27 -22 -25 -33 5 l-10 25 -21 -21 c-25 -25 -31 -20 -54 46 -37 102 -51 94
-61 -39 -4 -47 -11 -83 -16 -80 -4 3 -18 24 -29 46 -15 30 -18 43 -9 48 17 11
8 64 -11 68 -12 2 -18 -7 -23 -33 -6 -30 -10 -35 -27 -30 -15 5 -19 2 -19 -17
0 -32 -24 -66 -34 -49 -5 7 -1 20 7 29 8 9 18 33 22 52 4 19 14 44 22 56 10
16 11 24 3 29 -16 10 -40 -2 -40 -20 0 -9 -6 -23 -14 -31 -13 -12 -15 -10 -18
18 -3 30 -4 31 -18 15 -8 -10 -21 -24 -27 -32 -7 -7 -13 -20 -13 -28 0 -8 -10
-22 -21 -33 -27 -24 -39 -56 -28 -70 16 -19 0 -70 -23 -71 -17 -2 -19 2 -14
24 11 43 -16 22 -44 -35 -14 -28 -30 -51 -36 -52 -17 0 -77 -70 -109 -127 -19
-33 -40 -56 -62 -66 -30 -13 -33 -13 -33 2 0 22 30 69 71 111 36 38 48 53 93
115 17 22 40 51 53 65 47 51 87 102 102 130 65 117 72 133 66 160 -3 16 -13
31 -21 34 -8 3 -14 14 -14 24 0 28 -17 38 -53 34 -34 -4 -67 -44 -67 -83 0
-10 -6 -19 -14 -19 -25 0 -46 -42 -46 -90 0 -88 -26 -121 -56 -74 -13 19 -14
28 -5 37 13 13 15 67 2 67 -5 0 -11 -13 -14 -29 -3 -16 -18 -46 -32 -66 -14
-21 -26 -52 -26 -69 -1 -17 -5 -44 -10 -61 -7 -26 -8 -23 -6 17 2 56 -17 72
-44 37 -20 -27 -35 -9 -19 21 21 39 -28 70 -49 33 -13 -24 -34 -4 -29 28 2 19
11 25 37 29 28 4 39 13 58 48 14 24 22 50 20 57 -4 8 1 11 13 8 13 -4 23 4 36
29 9 18 32 49 51 69 53 55 114 141 110 153 -6 18 -56 19 -63 2 -4 -11 -14 -14
-29 -10 -18 4 -25 1 -30 -15 -3 -12 -10 -21 -15 -21 -13 0 -33 -40 -39 -79 -5
-29 -11 -35 -36 -38 -17 -2 -44 -17 -60 -34 -17 -16 -41 -29 -52 -29 -12 0
-25 -5 -28 -10 -8 -13 -67 -9 -80 5 -6 6 -8 46 -5 100 3 63 7 83 13 68 5 -13
13 -23 18 -23 18 0 14 91 -6 102 -13 8 -19 148 -6 148 13 0 31 49 25 65 -9 23
-23 18 -30 -12 -4 -16 -18 -38 -33 -50 -25 -20 -26 -26 -24 -108 1 -78 -1 -88
-17 -92 -10 -3 -23 -18 -29 -34 -12 -35 -29 -38 -35 -6 -13 61 -16 126 -6 132
16 10 3 23 -25 23 -28 0 -45 -23 -45 -62 0 -14 -11 -36 -26 -50 -25 -22 -26
-29 -21 -76 6 -48 4 -54 -18 -72 -14 -11 -27 -34 -31 -56 -3 -20 -14 -49 -24
-63 -10 -15 -22 -44 -26 -65 -4 -22 -13 -48 -20 -59 -8 -11 -14 -33 -15 -50 0
-16 -4 -39 -9 -50 -7 -18 -8 -19 -15 -2 -4 9 -4 34 -1 55 4 20 9 65 12 99 4
34 13 68 20 74 8 6 14 20 14 31 0 20 16 73 51 176 21 61 37 222 22 222 -16 0
-33 -23 -33 -47 0 -53 -132 -282 -194 -334 -22 -20 -29 -36 -35 -86 -8 -65
-13 -79 -29 -69 -13 8 -8 114 6 149 7 16 12 32 12 36 0 5 7 14 15 21 25 21 68
118 63 145 -3 13 -1 22 3 19 5 -3 9 2 9 10 0 9 -4 16 -10 16 -15 0 -12 46 4
59 11 10 16 8 24 -5 8 -14 11 -11 22 20 6 20 10 42 7 49 -5 12 -8 6 -22 -39
-4 -13 -8 -14 -20 -4 -12 10 -16 9 -21 -4 -3 -9 -21 -32 -40 -53 -35 -38 -42
-57 -24 -68 6 -3 10 -10 10 -16 0 -14 -28 -11 -33 4 -3 6 -6 -5 -6 -25 -1 -26
-6 -38 -15 -38 -15 0 -26 -21 -26 -49 0 -10 -9 -26 -20 -36 -14 -12 -18 -25
-14 -42 4 -16 -2 -36 -20 -63 -14 -22 -26 -46 -26 -53 0 -8 -10 -22 -21 -33
l-22 -19 7 40 c22 135 23 150 9 172 -18 27 -11 51 30 106 18 23 48 68 67 100
19 31 38 57 42 57 4 0 8 5 8 11 0 6 15 34 34 62 60 91 57 153 -3 80 -39 -47
-39 -25 -1 47 17 30 30 60 30 66 0 17 36 45 51 39 8 -3 20 6 30 22 23 41 118
85 224 103 117 21 124 21 230 -7z m-1425 -113 c0 -5 -7 -10 -15 -10 -8 0 -15
5 -15 10 0 6 7 10 15 10 8 0 15 -4 15 -10z m766 -142 c-4 -18 -18 -44 -31 -58
l-25 -25 0 31 c0 32 33 84 52 84 7 0 8 -12 4 -32z m2352 -57 c-3 -57 -18 -58
-18 -2 0 34 6 51 17 51 2 0 3 -22 1 -49z m-3203 -31 c4 -6 -6 -10 -24 -10 -16
0 -33 5 -36 10 -4 6 6 10 24 10 16 0 33 -4 36 -10z m735 4 c0 -12 -55 -94 -63
-94 -5 0 -5 6 -1 12 5 7 9 21 9 30 2 28 55 78 55 52z m-730 -258 c0 -7 14 -16
30 -19 44 -9 40 -37 -5 -37 -29 0 -35 4 -35 20 0 11 -7 23 -15 26 -22 9 -18
24 5 24 11 0 20 -6 20 -14z m940 -14 c0 -10 -6 -27 -14 -38 -14 -18 -15 -18
-12 6 4 42 26 68 26 32z m496 -62 c6 -34 4 -42 -7 -38 -9 3 -15 23 -16 59 -2
62 12 49 23 -21z m-3879 23 c-15 -7 -27 -18 -27 -23 0 -16 -40 -11 -46 5 -13
33 41 61 80 42 18 -9 18 -10 -7 -24z m2402 -6 c20 -25 -18 -37 -49 -17 -13 9
-13 11 0 20 21 13 36 12 49 -3z m-2799 -59 c0 -16 -3 -19 -11 -11 -6 6 -8 16
-5 22 11 17 16 13 16 -11z m4540 -8 c0 -5 -9 -10 -20 -10 -11 0 -20 5 -20 10
0 6 9 10 20 10 11 0 20 -4 20 -10z m1956 -27 c-11 -11 -17 4 -9 23 7 18 8 18
11 1 2 -10 1 -21 -2 -24z m-2032 21 c12 -4 8 -12 -19 -37 -60 -57 -75 -67 -75
-48 0 17 45 80 60 84 8 3 16 5 17 6 1 0 8 -2 17 -5z m-4444 -23 c0 -5 -7 -11
-15 -15 -15 -5 -20 5 -8 17 9 10 23 9 23 -2z m6630 -75 c-1 -49 -35 -100 -51
-75 -13 21 -11 48 7 96 13 35 20 41 30 32 8 -6 14 -30 14 -53z m-120 15 c0
-12 -20 -25 -27 -18 -7 7 6 27 18 27 5 0 9 -4 9 -9z m-2240 -21 c0 -5 -5 -10
-11 -10 -5 0 -7 5 -4 10 3 6 8 10 11 10 2 0 4 -4 4 -10z m-4753 -15 c3 -9 3
-19 -1 -22 -8 -9 -37 18 -30 28 8 14 24 11 31 -6z m5443 -52 c-13 -66 -32
-127 -46 -147 -8 -11 -14 -18 -14 -16 -8 78 -6 105 6 117 8 8 14 24 14 37 0
24 17 46 36 46 8 0 9 -11 4 -37z m-2625 -34 c11 -17 0 -20 -21 -4 -17 13 -17
14 -2 15 9 0 20 -5 23 -11z m2112 -51 c-3 -8 -6 -5 -6 6 -1 11 2 17 5 13 3 -3
4 -12 1 -19z m-3884 -29 c9 -12 17 -16 17 -10 0 6 5 11 11 11 6 0 8 -9 4 -21
-6 -19 -4 -21 17 -16 28 7 98 -36 78 -48 -17 -10 -118 6 -131 21 -6 8 -18 14
-26 14 -8 0 -25 11 -39 25 -14 14 -29 25 -34 25 -17 0 -11 18 8 23 31 9 77 -3
95 -24z m1618 -41 c10 -18 8 -19 -13 -13 -28 9 -41 27 -25 37 14 8 24 2 38
-24z m-1981 11 c12 -17 112 -17 140 -1 24 14 34 15 62 4 19 -6 44 -12 55 -12
11 0 26 -7 33 -15 6 -8 38 -27 71 -42 32 -15 59 -31 59 -35 0 -3 -14 -9 -31
-13 -28 -6 -29 -8 -15 -24 23 -26 20 -34 -13 -28 -17 4 -36 0 -47 -8 -11 -8
-14 -15 -9 -15 6 0 28 -16 48 -35 58 -54 111 -42 68 16 -20 27 -20 29 -4 29
10 0 26 -8 34 -17 9 -10 24 -23 34 -29 13 -7 16 -16 12 -28 -6 -15 -10 -16
-22 -6 -29 24 -30 -2 -2 -26 30 -25 47 -31 47 -14 0 6 6 10 14 10 16 0 29 -27
20 -41 -3 -6 -2 -15 4 -22 12 -16 8 -70 -6 -75 -6 -2 -18 8 -27 22 -10 14 -20
24 -24 21 -4 -2 -14 5 -22 17 -8 11 -23 29 -33 39 -18 18 -19 17 -37 -6 -11
-13 -19 -33 -19 -45 0 -16 -4 -20 -19 -15 -11 3 -22 1 -26 -5 -3 -5 -18 -10
-33 -10 -20 0 -23 3 -13 9 12 8 12 12 2 25 -19 22 -34 20 -26 -4 6 -18 4 -19
-21 -10 -28 11 -54 7 -54 -7 0 -4 25 -35 55 -68 30 -32 55 -63 55 -68 0 -5
-15 -6 -32 -2 -18 4 -60 9 -93 12 -33 3 -71 13 -85 23 -17 12 -36 16 -58 13
-21 -4 -39 0 -50 10 -14 12 -19 13 -29 2 -9 -10 -8 -17 7 -33 18 -19 18 -20
-18 -26 -28 -4 -40 -2 -49 11 -19 24 -16 33 9 33 21 0 21 0 2 15 -15 11 -21
12 -29 1 -5 -7 -18 -15 -27 -19 -10 -3 -18 -17 -18 -29 -1 -23 -1 -23 -23 4
-20 24 -26 26 -57 19 -56 -14 -107 -39 -114 -57 -3 -8 1 -28 10 -44 14 -22 27
-29 66 -34 27 -4 66 -16 86 -28 20 -12 48 -27 60 -34 22 -11 23 -13 5 -22 -14
-8 -15 -13 -6 -23 13 -13 48 -4 39 10 -3 5 3 20 13 32 16 20 23 22 38 13 11
-7 41 -9 71 -6 35 3 52 1 52 -7 0 -6 14 -11 31 -11 17 0 42 -9 56 -20 14 -11
33 -20 41 -20 24 0 82 -23 82 -33 0 -4 4 -6 8 -3 5 3 30 -11 57 -30 27 -18 52
-34 57 -34 5 0 34 -16 64 -35 30 -19 57 -35 60 -35 3 0 33 -20 67 -44 34 -24
72 -47 84 -50 13 -4 29 -13 37 -21 7 -7 60 -41 117 -76 57 -34 131 -83 164
-108 33 -26 67 -52 77 -57 9 -5 47 -38 85 -74 38 -36 89 -81 113 -100 123 -99
275 -251 322 -323 15 -23 32 -47 37 -53 17 -20 67 -128 89 -189 43 -126 88
-405 64 -405 -10 0 -32 90 -32 131 0 59 -93 358 -133 428 -42 72 -109 148
-242 275 -153 146 -176 166 -184 166 -3 0 -31 23 -61 51 -96 89 -286 226 -360
260 -64 30 -130 66 -183 101 -32 21 -62 38 -67 38 -5 0 -24 13 -42 28 -18 16
-54 39 -81 52 -26 13 -55 32 -64 42 -9 10 -20 18 -25 18 -5 0 -21 9 -36 20
-18 13 -44 20 -77 21 -27 1 -69 7 -91 15 -23 7 -51 10 -63 7 -12 -3 -29 1 -39
9 -9 9 -28 18 -43 21 -20 5 -28 1 -43 -23 -9 -17 -26 -30 -36 -30 -10 0 -21
-4 -24 -8 -6 -11 -33 -316 -41 -464 -3 -59 -14 -151 -25 -205 -11 -54 -20
-111 -20 -128 0 -16 -12 -52 -25 -80 -14 -27 -25 -59 -25 -70 -1 -11 -7 -31
-15 -45 -20 -34 -18 -53 5 -78 11 -12 20 -33 20 -47 0 -25 -1 -25 -30 -10 -47
24 -63 20 -55 -14 7 -34 -9 -71 -30 -71 -19 0 -42 43 -26 48 19 6 12 27 -19
57 -17 16 -36 47 -42 68 -6 21 -27 55 -45 75 -18 20 -33 40 -33 44 0 4 -4 8
-10 8 -20 0 -9 -36 20 -70 31 -35 48 -76 36 -87 -3 -3 -9 8 -12 25 -5 25 -12
32 -30 32 -12 0 -29 -7 -38 -15 -8 -8 -20 -15 -27 -15 -16 0 -2 -15 14 -15 7
0 11 -8 11 -18 -1 -10 18 -34 42 -54 47 -40 56 -63 25 -63 -26 0 -31 -20 -14
-51 12 -20 21 -24 43 -21 21 3 31 -1 40 -17 16 -31 -17 -42 -40 -14 -22 28
-47 15 -31 -15 18 -35 14 -45 -16 -38 -16 4 -36 7 -47 7 -10 0 -29 7 -42 16
-21 13 -24 13 -24 0 0 -8 7 -27 15 -43 19 -38 12 -42 -18 -10 -33 35 -51 34
-44 -3 8 -37 2 -42 -34 -29 -23 8 -30 17 -35 49 -5 28 -11 39 -24 39 -10 0
-20 -7 -24 -15 -8 -21 -26 -19 -26 4 0 10 -9 29 -20 42 l-19 24 -7 -32 c-8
-41 -15 -41 -37 -4 -18 31 -23 76 -8 66 15 -9 24 35 10 51 -7 9 -12 44 -12 91
1 41 -2 70 -6 64 -4 -6 -14 -9 -23 -6 -12 5 -17 -4 -22 -41 -5 -38 -1 -55 19
-96 20 -40 22 -49 9 -44 -8 3 -22 6 -30 6 -8 0 -21 16 -29 34 -8 19 -26 46
-40 60 -14 14 -25 31 -25 39 0 8 -6 20 -14 26 -8 7 -17 28 -21 47 -3 20 -17
47 -30 60 -13 13 -28 46 -34 75 -7 29 -15 57 -20 63 -5 6 -11 42 -15 81 -4 39
-14 77 -22 86 -11 13 -13 29 -8 68 4 28 11 54 15 57 5 3 9 18 9 34 0 42 27
102 54 122 22 16 25 16 43 0 30 -27 61 -42 84 -42 28 0 136 -70 144 -93 6 -15
14 -17 43 -13 28 4 43 1 60 -13 12 -11 22 -24 22 -29 0 -18 60 -61 75 -55 30
11 73 -18 94 -63 23 -47 42 -55 73 -27 17 15 18 15 18 -5 0 -27 21 -74 40 -89
13 -11 13 -12 -2 -13 -10 0 -18 5 -18 10 0 6 -8 10 -17 10 -13 0 -10 -7 12
-30 16 -16 35 -30 42 -30 7 0 13 -4 13 -9 0 -5 15 -15 34 -21 35 -11 66 -47
66 -75 0 -22 15 -18 28 8 45 89 66 178 77 312 3 50 11 108 16 130 5 22 13 119
18 215 8 161 7 178 -10 208 -21 36 -17 54 15 75 27 18 30 53 7 75 -21 21 -44
25 -98 17 -41 -6 -43 -8 -43 -40 0 -29 5 -37 35 -51 36 -17 46 -34 21 -34 -8
0 -22 -7 -30 -16 -9 -9 -24 -13 -35 -9 -21 6 -56 -23 -71 -60 -8 -19 -9 -19
-9 1 -1 30 -69 64 -126 64 -32 0 -51 -7 -74 -26 -17 -14 -31 -30 -31 -34 0
-16 53 -59 80 -65 29 -7 70 -38 70 -54 0 -14 -55 -14 -81 0 -32 17 -59 42 -59
56 0 14 -31 33 -54 33 -29 0 -16 -30 24 -55 44 -27 46 -45 6 -38 -19 4 -34 -4
-63 -32 -21 -21 -37 -41 -36 -46 2 -5 -2 -9 -8 -9 -7 0 -8 -14 -4 -40 l7 -40
-26 11 c-14 7 -26 17 -26 23 0 5 -16 27 -36 47 -20 21 -53 68 -73 106 -21 37
-47 72 -58 78 -12 5 -30 27 -40 50 -10 22 -33 60 -51 84 -101 132 -127 237
-93 368 16 60 105 148 203 201 64 34 98 45 195 61 115 19 175 33 277 66 27 8
61 15 76 15 14 0 41 11 59 24 62 46 330 96 351 65z m4975 -136 c-10 -41 -64
-154 -89 -184 -11 -15 -30 -39 -41 -54 -11 -16 -25 -33 -30 -39 -6 -6 -21 -26
-34 -43 -15 -22 -31 -33 -47 -33 -31 0 -31 23 0 44 52 33 76 66 76 102 0 41
37 111 63 120 9 3 17 9 17 14 0 12 73 99 84 99 4 1 5 -11 1 -26z m-4490 5 c14
-6 25 -19 25 -30 0 -14 -8 -18 -34 -18 -30 0 -34 3 -38 30 -5 33 5 37 47 18z
m-1870 -14 c14 -9 25 -23 25 -31 0 -8 16 -33 35 -56 43 -50 49 -82 42 -226 -4
-86 -1 -129 10 -166 31 -107 37 -169 19 -205 -9 -18 -16 -54 -16 -79 0 -27 -7
-56 -16 -70 -9 -12 -18 -39 -19 -59 -2 -20 -7 -50 -11 -65 -4 -16 -2 -38 4
-50 16 -31 39 -124 46 -182 l6 -50 -25 28 c-15 15 -30 25 -35 22 -17 -11 -58
14 -62 37 -3 20 -9 23 -44 22 -47 -1 -65 -16 -177 -151 -43 -52 -63 -83 -55
-86 8 -4 7 -6 -4 -6 -9 -1 -19 3 -22 8 -8 13 45 87 124 171 38 41 70 80 70 86
0 7 7 14 15 18 16 6 21 56 6 56 -5 0 -11 12 -14 28 -4 18 -20 37 -47 55 -23
15 -45 27 -49 27 -4 0 -32 -22 -63 -50 -31 -27 -61 -50 -66 -50 -6 0 -13 -8
-16 -18 -4 -10 -20 -32 -37 -48 l-31 -29 7 30 c5 20 42 63 106 127 84 82 99
101 99 128 0 22 -5 33 -18 36 -22 6 -42 48 -31 66 5 7 6 58 4 113 -4 90 -3
101 17 122 34 37 18 50 -69 58 -93 8 -110 12 -97 25 7 7 38 6 89 0 80 -10 105
-4 105 25 0 16 -22 25 -63 26 -27 0 -29 2 -12 9 11 5 32 9 48 9 16 1 27 7 27
15 0 11 -9 13 -35 9 -38 -6 -195 15 -195 26 0 12 122 32 194 33 76 0 88 11 90
83 0 23 7 49 15 58 8 11 11 28 7 47 -3 17 -2 30 2 30 5 0 17 8 28 18 17 16 54
41 62 42 1 0 14 -7 27 -16z m-186 -20 c18 -9 30 -18 27 -21 -3 -3 -20 4 -38
16 -39 25 -34 27 11 5z m3471 0 c0 -17 -22 -14 -28 4 -2 7 3 12 12 12 9 0 16
-7 16 -16z m277 -30 c-3 -3 -12 -4 -19 -1 -8 3 -5 6 6 6 11 1 17 -2 13 -5z
m1203 -28 c0 -19 -4 -38 -10 -41 -6 -4 -10 10 -10 34 0 23 5 41 10 41 6 0 10
-15 10 -34z m1868 2 c-6 -18 -28 -21 -28 -4 0 9 7 16 16 16 9 0 14 -5 12 -12z
m-1100 -20 c2 -12 -3 -18 -16 -18 -22 0 -46 23 -35 34 13 13 48 1 51 -16z
m-378 -14 c0 -8 -7 -14 -15 -14 -15 0 -21 21 -9 33 10 9 24 -2 24 -19z m-388
-147 c-5 -45 -16 -47 -38 -6 -16 32 -12 79 6 79 6 0 10 10 11 23 0 15 5 9 13
-18 7 -22 11 -57 8 -78z m910 81 c-6 -6 -15 -8 -19 -4 -4 4 -1 11 7 16 19 12
27 3 12 -12z m-64 -32 c-10 -7 -18 -17 -18 -21 0 -11 -31 -45 -41 -45 -5 0 -6
8 -2 18 7 19 53 61 68 61 6 0 2 -6 -7 -13z m1112 -4 c0 -15 -31 -52 -53 -62
-20 -10 -20 -10 -5 3 10 7 22 26 27 40 10 25 31 38 31 19z m-4951 -86 c41 -23
81 -56 81 -68 0 -4 -11 -8 -25 -8 -14 0 -24 5 -22 12 1 6 -7 14 -18 16 -25 5
-77 61 -69 74 4 6 9 6 13 2 3 -5 21 -18 40 -28z m4994 -18 c-3 -16 -9 -28 -13
-28 -5 0 -16 -7 -25 -16 -8 -9 -22 -13 -30 -10 -25 9 -2 50 33 61 18 5 32 13
32 19 0 5 2 7 4 5 2 -2 2 -16 -1 -31z m-4803 2 c13 -8 12 -10 -4 -10 -16 0
-16 -2 -5 -16 11 -13 9 -14 -17 -8 -30 7 -46 22 -38 36 7 11 46 10 64 -2z
m-2457 -47 c-7 -2 -19 -2 -25 0 -7 3 -2 5 12 5 14 0 19 -2 13 -5z m2286 -10
c17 -10 31 -26 31 -35 0 -20 -15 -24 -25 -8 -3 6 -15 10 -26 10 -12 0 -19 7
-19 19 0 11 -6 22 -12 24 -8 4 -7 6 4 6 9 1 30 -7 47 -16z m2971 -7 c0 -28
-12 -46 -31 -46 -23 0 -24 17 -2 42 19 22 33 23 33 4z m-3540 -61 c9 -11 22
-14 40 -10 18 4 29 2 33 -8 3 -7 23 -19 46 -26 23 -6 41 -18 41 -26 0 -17 -17
-29 -24 -16 -3 5 -23 12 -43 16 -21 3 -49 13 -62 22 -15 10 -34 13 -57 8 -39
-7 -40 -4 -18 30 19 29 27 31 44 10z m5280 -15 c0 -5 -4 -10 -10 -10 -5 0 -10
5 -10 10 0 6 5 10 10 10 6 0 10 -4 10 -10z m-15 -30 c8 -13 -18 -51 -32 -46
-6 3 -14 -1 -16 -9 -3 -7 -20 -16 -38 -20 -17 -4 -53 -18 -79 -31 -26 -13 -55
-24 -64 -24 -32 0 -111 -50 -135 -85 -13 -20 -33 -40 -43 -46 -15 -8 -18 -6
-18 15 0 14 8 31 18 38 9 7 24 27 32 43 25 51 54 71 121 84 35 7 78 14 94 15
45 5 102 32 115 55 11 22 35 28 45 11z m-4901 -44 c242 -117 382 -151 676
-161 134 -5 204 -4 223 4 19 7 34 8 45 1 9 -5 13 -10 7 -10 -5 0 -55 -7 -110
-15 -128 -19 -189 -19 -355 0 -186 22 -345 65 -423 115 -34 22 -69 40 -79 40
-22 0 -98 46 -98 60 0 17 20 11 114 -34z m3063 8 c5 -15 -28 -27 -40 -15 -5 5
-6 14 -2 21 8 13 37 9 42 -6z m2860 10 c-3 -3 -12 -4 -19 -1 -8 3 -5 6 6 6 11
1 17 -2 13 -5z m-5557 -18 c0 -11 -19 -15 -25 -6 -3 5 1 10 9 10 9 0 16 -2 16
-4z m5937 -18 c-3 -8 -6 -5 -6 6 -1 11 2 17 5 13 3 -3 4 -12 1 -19z m-712 2
c3 -5 15 -10 25 -10 11 0 27 -11 37 -25 21 -30 80 -92 97 -103 7 -4 20 -18 29
-32 15 -22 17 -22 17 -5 0 16 6 13 30 -15 17 -19 36 -42 44 -50 7 -8 17 -31
21 -50 4 -19 14 -47 21 -62 8 -16 10 -28 5 -28 -12 0 -41 45 -41 64 0 8 -12
24 -26 35 -21 16 -30 18 -40 10 -11 -9 -14 -8 -14 5 0 16 -11 32 -62 90 l-27
31 -1 -27 c0 -15 5 -30 10 -33 13 -8 13 -35 -1 -35 -5 0 -15 14 -21 30 -5 17
-19 35 -29 41 -20 10 -49 69 -49 100 0 15 -5 18 -24 13 -20 -5 -24 -1 -28 25
-3 17 -2 33 0 36 8 8 20 6 27 -5z m763 -38 c2 -7 -3 -12 -12 -12 -9 0 -16 7
-16 16 0 17 22 14 28 -4z m-356 -63 c62 -66 66 -74 43 -82 -12 -5 -12 -10 0
-33 12 -23 12 -29 -1 -41 -18 -19 -34 -8 -34 23 0 14 -5 35 -11 47 -10 17 -9
23 3 31 13 8 12 13 -11 32 -28 23 -67 84 -55 84 4 0 34 -28 66 -61z m-4803 37
c-15 -13 -49 -25 -49 -17 0 5 8 12 18 14 24 6 36 8 31 3z m-3075 -36 c-12 -12
-140 -60 -161 -60 -22 0 49 47 90 59 44 13 84 14 71 1z m2961 -10 c-3 -5 -21
-10 -38 -9 -31 1 -31 1 -7 9 36 11 52 11 45 0z m-75 -20 c0 -5 -10 -10 -22
-10 -19 0 -20 2 -8 10 19 13 30 13 30 0z m-1140 -30 c9 -6 19 -5 28 2 10 9 18
7 33 -8 19 -19 18 -20 -34 -19 -54 1 -77 9 -77 26 0 12 31 12 50 -1z m-88 -12
c0 -7 2 -40 3 -73 4 -91 31 -306 44 -338 15 -39 14 -57 -4 -57 -11 0 -15 -11
-15 -42 0 -51 -9 -88 -21 -88 -5 0 -9 67 -9 148 0 86 -4 152 -10 158 -6 6 -11
57 -13 115 -1 75 -7 113 -20 138 -9 19 -17 38 -17 43 0 13 60 9 62 -4z m-1872
-12 c0 -2 -7 -7 -16 -10 -8 -3 -12 -2 -9 4 6 10 25 14 25 6z m7724 -12 c3 -8
2 -12 -4 -9 -6 3 -10 10 -10 16 0 14 7 11 14 -7z m466 -14 c0 -5 -5 -10 -11
-10 -5 0 -7 5 -4 10 3 6 8 10 11 10 2 0 4 -4 4 -10z m-7950 -9 c0 -5 -19 -16
-42 -26 -24 -9 -79 -35 -125 -57 -45 -22 -87 -37 -93 -33 -7 5 4 14 29 26 23
10 44 25 47 34 3 8 13 15 21 15 8 0 21 7 29 15 9 8 25 15 37 15 12 0 29 5 37
10 19 12 60 13 60 1z m6647 -30 c-12 -8 -26 -22 -31 -30 -8 -13 -10 -12 -17 4
-13 35 -10 45 15 45 14 0 28 5 32 11 4 8 9 7 15 -2 5 -8 0 -18 -14 -28z
m-5373 14 c3 -8 1 -15 -4 -15 -6 0 -10 7 -10 15 0 8 2 15 4 15 2 0 6 -7 10
-15z m781 -4 c3 -1 12 -1 20 -1 21 0 19 -46 -2 -54 -9 -4 -21 -2 -27 4 -12 12
-46 13 -46 1 0 -5 11 -16 25 -25 16 -10 25 -26 25 -42 0 -37 -20 -26 -59 33
-21 31 -39 49 -47 46 -11 -4 -11 -9 1 -26 32 -46 10 -50 -38 -7 -19 17 -37 41
-39 55 -5 22 -2 25 23 25 15 0 30 -4 33 -8 6 -11 66 -3 66 8 0 5 14 5 30 0 17
-5 33 -9 35 -9z m4525 -57 c0 -18 -29 -25 -51 -14 -23 13 -25 36 -3 48 18 10
54 -13 54 -34z m1036 10 c1 -16 5 -40 9 -54 l8 -25 -25 25 c-31 31 -38 50 -26
73 13 26 33 15 34 -19z m-6295 -75 c-12 -16 -21 -32 -21 -36 1 -17 -55 -183
-62 -183 -8 0 21 111 32 125 4 6 11 33 16 60 4 28 16 68 28 90 l21 40 3 -34
c2 -23 -3 -43 -17 -62z m-630 43 c20 -23 30 -74 19 -92 -7 -12 -12 -11 -29 4
-10 9 -25 19 -33 21 -57 13 -71 31 -50 61 18 27 72 31 93 6z m1224 -62 c10
-11 18 -28 19 -37 4 -43 33 -113 73 -178 24 -38 43 -76 43 -85 0 -8 15 -47 34
-86 19 -39 38 -83 41 -97 4 -14 13 -31 21 -38 8 -6 14 -16 14 -21 0 -6 24 -60
54 -121 29 -62 62 -132 74 -157 11 -25 35 -79 54 -120 56 -122 77 -180 68
-185 -4 -3 -16 14 -25 38 -9 23 -32 74 -50 112 -18 39 -47 100 -64 138 -81
176 -105 228 -201 432 -10 22 -21 50 -25 62 -3 13 -12 29 -19 35 -16 17 -66
108 -66 120 0 15 -70 108 -82 108 -13 0 -32 21 -41 43 -18 48 42 76 78 37z
m-755 1 c0 -15 -28 -39 -53 -46 -12 -4 -34 -18 -49 -32 -14 -14 -29 -24 -32
-24 -8 2 -59 -31 -68 -43 -4 -6 -10 -8 -13 -4 -12 11 39 69 77 89 20 10 53 30
74 44 38 26 64 32 64 16z m4263 -39 c20 -19 25 -20 38 -7 12 12 31 13 114 5
55 -5 138 -16 185 -25 47 -9 119 -20 160 -24 42 -4 81 -10 87 -14 6 -4 46 -12
89 -17 42 -5 90 -17 107 -25 16 -8 36 -15 43 -15 44 0 264 -107 264 -129 0 -5
25 -27 55 -50 30 -23 70 -56 89 -74 54 -52 127 -114 181 -154 28 -20 94 -74
147 -120 76 -65 103 -96 127 -143 17 -33 31 -69 31 -79 0 -10 7 -24 16 -32 15
-12 15 -34 -1 -71 -5 -13 -3 -18 9 -18 10 0 16 9 16 25 0 14 3 25 8 25 9 0 62
-101 62 -120 0 -8 11 -23 25 -35 31 -25 42 -73 21 -100 -16 -22 -15 -24 -36
57 -8 31 -19 50 -31 53 -12 4 -19 16 -19 31 0 27 -24 33 -34 8 -10 -27 -7 -43
15 -65 11 -11 18 -24 14 -27 -4 -4 -12 1 -19 10 -7 10 -15 15 -18 12 -8 -7
-65 86 -73 119 -13 51 -28 30 -22 -33 6 -66 -5 -77 -38 -40 -13 15 -21 17 -31
9 -7 -5 -21 -9 -31 -7 -13 2 -19 -4 -21 -24 -4 -31 -17 -37 -26 -12 -11 28 -6
62 9 68 10 4 15 20 15 54 0 44 12 72 32 72 4 0 8 -11 8 -23 0 -31 9 -39 26
-23 18 18 -2 61 -34 76 -31 14 -31 14 -42 -15 -5 -14 -23 -33 -39 -43 -33 -18
-45 -48 -35 -87 5 -20 3 -24 -10 -19 -9 3 -16 1 -16 -5 0 -6 -4 -11 -10 -11
-5 0 -9 10 -7 22 3 32 -28 34 -54 4 -36 -42 -38 -39 -40 59 0 20 36 54 58 55
6 0 18 6 25 13 7 8 23 19 36 26 12 6 22 18 22 26 0 7 9 17 20 20 23 7 26 46 9
108 -11 42 -29 50 -29 12 0 -15 -6 -25 -15 -25 -8 0 -19 -9 -25 -20 -11 -20
-50 -28 -50 -10 0 5 -9 14 -21 20 -15 9 -24 8 -36 -1 -13 -11 -18 -10 -29 6
-8 10 -14 29 -14 42 0 25 -19 30 -38 11 -7 -7 -8 -17 -2 -28 5 -10 9 -39 9
-66 -1 -43 -6 -54 -42 -91 -43 -43 -59 -47 -50 -13 3 11 2 40 -1 65 -6 36 -11
45 -27 45 -12 0 -19 -7 -19 -20 0 -49 -36 1 -50 70 -4 19 -11 44 -16 55 -7 18
-6 18 9 7 14 -12 20 -10 41 15 26 29 27 44 2 24 -12 -10 -17 -8 -25 8 -6 11
-20 23 -31 26 -13 4 -20 15 -20 33 -1 23 -2 25 -11 9 -5 -9 -7 -22 -4 -28 4
-6 -1 -16 -10 -23 -14 -10 -15 -17 -6 -34 16 -30 14 -42 -9 -42 -14 0 -20 7
-20 23 0 13 -6 32 -14 43 -16 21 -15 21 -32 -34 -2 -7 -8 -10 -14 -7 -6 4 -10
-11 -10 -39 0 -54 -12 -60 -27 -13 -8 26 -7 38 3 52 12 16 11 21 -2 36 -21 23
-11 49 17 49 22 0 23 2 3 85 -8 35 -31 65 -51 65 -7 0 -13 -7 -13 -15 0 -8 -9
-19 -20 -25 -20 -11 -27 -2 -11 16 11 12 31 95 31 128 0 33 -16 34 -24 1 -4
-16 -11 -23 -18 -19 -21 13 -62 11 -83 -4 -19 -13 -17 -14 18 -10 20 2 37 2
37 -2 -1 -3 -7 -30 -14 -60 -10 -44 -14 -51 -20 -34 -4 12 -16 24 -26 27 -11
3 -20 12 -20 21 0 9 -4 16 -10 16 -14 0 -13 -33 2 -48 9 -9 9 -15 0 -24 -9 -9
-16 -7 -31 6 -17 15 -25 17 -52 7 -35 -12 -49 -3 -49 31 0 16 -3 16 -34 -3
-19 -11 -37 -31 -40 -44 -6 -24 -36 -36 -36 -15 0 6 -9 10 -20 10 -11 0 -20 7
-20 15 0 22 -18 18 -25 -5 -3 -11 -10 -20 -15 -20 -5 0 -16 -8 -25 -17 -16
-16 -18 -16 -27 0 -5 9 -16 17 -25 17 -12 0 -14 -7 -10 -35 4 -26 2 -35 -9
-35 -8 0 -14 -8 -14 -18 0 -9 -9 -23 -20 -30 -18 -11 -20 -10 -20 21 0 18 -5
38 -11 44 -8 8 -8 17 1 33 14 26 8 36 -10 15 -7 -8 -18 -15 -26 -15 -11 0 -24
-24 -30 -57 -1 -7 4 -13 11 -13 7 0 16 -11 19 -25 3 -13 15 -29 26 -35 11 -6
20 -15 20 -20 0 -16 -30 -11 -36 5 -7 17 -40 20 -49 5 -8 -13 -25 -3 -25 16 0
8 7 14 15 14 8 0 15 7 15 15 0 30 -30 14 -48 -25 -10 -22 -22 -37 -26 -33 -4
4 -9 -3 -13 -15 -3 -12 -12 -22 -19 -22 -11 0 -10 9 6 40 11 21 20 46 20 54 0
9 9 20 20 26 11 6 20 17 20 26 0 8 7 17 15 20 8 4 15 12 15 18 0 7 21 35 48
62 85 88 91 109 53 179 -19 37 -38 32 -26 -6 8 -25 -21 -89 -40 -89 -18 0 -19
-5 4 55 25 68 35 125 21 125 -20 0 -50 -20 -50 -34 0 -8 -15 -30 -32 -50 -24
-25 -37 -33 -47 -27 -16 10 -9 52 12 73 38 38 49 99 27 153 -10 27 -12 28 -21
12 -8 -13 -7 -22 2 -33 10 -12 8 -27 -7 -74 -20 -65 -45 -83 -94 -70 -21 5
-25 12 -28 49 -3 39 0 46 34 75 43 38 39 56 -13 56 -45 0 -62 -21 -63 -77 0
-48 -14 -62 -39 -39 -39 35 -43 2 -6 -42 14 -17 32 -45 40 -64 11 -26 14 -29
15 -11 0 27 18 40 26 19 6 -15 -24 -76 -38 -76 -4 0 -13 12 -20 27 -10 21 -23
29 -52 34 -25 4 -46 16 -62 35 -22 27 -25 28 -38 12 -7 -10 -19 -18 -26 -18
-16 0 -5 60 12 71 7 4 13 27 13 51 1 24 3 53 3 66 3 33 57 62 117 62 28 0 57
5 65 11 25 16 108 5 133 -19z m2477 -52 c0 -5 -4 -10 -10 -10 -5 0 -10 5 -10
10 0 6 5 10 10 10 6 0 10 -4 10 -10z m20 -70 c0 -13 -1 -13 -10 0 -5 8 -10 22
-10 30 0 13 1 13 10 0 5 -8 10 -22 10 -30z m-8754 15 c-11 -8 -22 -12 -25 -9
-6 6 19 24 34 24 6 -1 1 -7 -9 -15z m1884 1 c0 -3 -4 -8 -10 -11 -5 -3 -10 -1
-10 4 0 6 5 11 10 11 6 0 10 -2 10 -4z m4007 -51 c2 -6 -13 -17 -32 -24 -19
-7 -35 -18 -35 -24 0 -7 -16 -27 -35 -46 -20 -19 -38 -46 -42 -59 -3 -14 -12
-37 -19 -51 -8 -14 -14 -33 -14 -42 0 -9 -11 -24 -25 -33 -14 -9 -25 -24 -25
-33 0 -15 -2 -15 -14 2 -15 21 -46 15 -46 -10 0 -16 -97 -115 -113 -115 -5 0
-25 -9 -43 -21 l-34 -21 0 22 c0 13 18 41 43 65 122 122 149 156 137 171 -17
20 0 38 50 53 28 8 49 24 68 50 15 21 42 49 61 62 18 13 40 34 49 47 15 24 62
28 69 7z m-3827 -45 c0 -5 -4 -10 -10 -10 -5 0 -10 5 -10 10 0 6 5 10 10 10 6
0 10 -4 10 -10z m492 -72 c5 -12 5 -18 -1 -18 -15 0 -33 39 -25 52 6 9 9 8 12
-2 3 -8 9 -23 14 -32z m132 -5 c3 -10 7 -81 10 -158 4 -126 4 -131 -5 -55 -5
47 -16 106 -24 131 -19 60 -19 99 -1 99 8 0 17 -8 20 -17z m3193 -55 c15 -22
19 -36 13 -42 -15 -15 -65 37 -57 58 9 23 19 20 44 -16z m-5074 -84 c4 -4 -10
-23 -31 -43 -21 -21 -48 -53 -59 -71 -21 -34 -83 -80 -83 -62 0 4 32 42 70 84
39 42 70 81 70 87 0 12 23 15 33 5z m4537 -69 c0 -9 -11 -38 -25 -65 -14 -27
-25 -63 -25 -80 0 -17 -4 -29 -8 -26 -11 6 -2 86 10 86 5 0 6 5 2 11 -3 6 2
28 11 50 18 40 35 51 35 24z m-3268 -27 c-13 -13 -32 -2 -32 18 0 12 4 13 21
3 14 -7 18 -14 11 -21z m4902 26 c14 -5 14 -9 -2 -37 -9 -17 -27 -43 -39 -57
-13 -13 -23 -29 -23 -35 0 -12 -48 -65 -58 -65 -5 0 -16 6 -27 14 -37 27 2
136 49 136 14 0 30 10 40 25 17 25 31 30 60 19z m-5724 -113 c0 -11 -76 -56
-110 -65 -16 -4 -11 1 12 13 21 10 50 28 65 40 32 24 33 24 33 12z m5210 -22
c0 -5 -4 -9 -10 -9 -5 0 -10 7 -10 16 0 8 5 12 10 9 6 -3 10 -10 10 -16z
m-993 -31 c-3 -8 -6 -5 -6 6 -1 11 2 17 5 13 3 -3 4 -12 1 -19z m1728 -88 c-3
-5 -14 -6 -25 -3 -16 4 -18 8 -9 19 9 11 15 11 25 3 8 -6 12 -15 9 -19z
m-1949 -56 c-4 -20 -10 -34 -13 -30 -3 3 -2 21 1 42 4 20 10 34 13 30 3 -3 2
-21 -1 -42z m1864 9 c-1 -10 -7 -29 -14 -42 -11 -20 -14 -21 -19 -6 -10 24 3
65 19 65 8 0 14 -8 14 -17z m-4850 -42 c0 -6 -4 -13 -10 -16 -5 -3 -10 1 -10
9 0 9 5 16 10 16 6 0 10 -4 10 -9z m3920 -29 c0 -17 -37 -42 -52 -37 -9 4 -43
-3 -76 -14 -34 -12 -72 -21 -86 -21 -14 0 -28 -4 -31 -10 -3 -5 -22 -10 -41
-10 -28 0 -35 4 -32 18 2 11 14 18 33 20 17 1 64 10 105 19 41 9 82 17 90 18
8 0 24 6 35 13 24 13 55 16 55 4z m-3832 -21 c3 -8 -1 -12 -9 -9 -7 2 -15 10
-17 17 -3 8 1 12 9 9 7 -2 15 -10 17 -17z m-174 -56 c3 -8 2 -15 -3 -15 -5 0
-14 7 -21 15 -10 12 -10 15 3 15 8 0 17 -7 21 -15z m4492 -102 c-2 -9 -8 -19
-14 -21 -7 -2 -12 -12 -12 -22 0 -11 -7 -23 -16 -28 -9 -5 -15 -11 -15 -13 1
-2 -6 -22 -14 -44 -16 -40 -77 -91 -95 -80 -14 8 7 56 40 94 17 18 30 37 30
41 0 10 80 90 90 90 5 0 7 -8 6 -17z m463 -40 c-13 -50 -48 -115 -71 -131 -10
-7 -18 -20 -18 -28 0 -8 -7 -17 -15 -20 -8 -3 -17 -16 -21 -27 -9 -29 -111
-167 -123 -167 -5 0 -12 -9 -16 -19 -3 -10 -29 -29 -57 -41 -41 -17 -56 -20
-75 -11 -20 9 -22 14 -13 31 6 10 29 28 53 39 47 22 164 115 181 145 6 10 20
29 31 41 48 54 65 82 71 118 6 35 57 107 75 107 4 0 3 -17 -2 -37z m-4399 -50
c0 -22 -2 -25 -10 -13 -13 20 -13 40 0 40 6 0 10 -12 10 -27z m560 -83 c11
-35 32 -84 46 -107 21 -37 22 -43 8 -43 -12 0 -15 -6 -10 -25 5 -18 2 -25 -8
-25 -18 0 -27 23 -32 87 -2 28 -15 82 -29 118 -14 37 -25 77 -25 89 1 20 2 20
15 -4 8 -14 24 -54 35 -90z m-1213 78 c-3 -8 -6 -5 -6 6 -1 11 2 17 5 13 3 -3
4 -12 1 -19z m-187 -18 c0 -5 -7 -7 -15 -4 -8 4 -15 8 -15 10 0 2 7 4 15 4 8
0 15 -4 15 -10z m6047 -22 c-3 -8 -6 -5 -6 6 -1 11 2 17 5 13 3 -3 4 -12 1
-19z m-5667 -40 c0 -21 -54 3 -63 26 -5 13 0 12 28 -2 19 -9 35 -20 35 -24z
m427 -12 c18 -4 35 -15 38 -25 5 -18 47 -53 77 -64 12 -4 15 -2 11 9 -5 14 -1
14 32 0 20 -9 53 -29 71 -46 37 -32 59 -38 67 -17 10 27 26 -9 18 -43 -6 -31
-8 -33 -18 -16 -15 28 -43 13 -43 -22 0 -16 23 -84 50 -151 56 -136 60 -155
31 -146 -18 5 -20 1 -18 -34 2 -48 -15 -55 -24 -11 -4 18 -11 36 -17 42 -16
16 -21 -28 -6 -58 16 -30 18 -54 5 -54 -15 0 -51 125 -57 202 -5 59 -10 75
-21 71 -8 -3 -17 6 -24 26 -6 17 -15 31 -19 31 -5 0 -25 26 -45 58 l-36 57 6
-40 c4 -22 15 -54 26 -71 37 -60 87 -354 60 -354 -10 0 -16 19 -40 115 -13 54
-33 106 -52 135 -20 33 -43 152 -34 180 11 36 36 58 57 52 11 -2 32 -30 50
-66 17 -33 40 -72 51 -86 l19 -25 -6 35 c-4 19 -12 46 -19 58 -9 20 -8 25 6
33 9 6 17 17 17 25 0 19 -34 47 -62 50 -13 1 -35 6 -50 9 -19 5 -31 2 -48 -15
-38 -38 -55 -23 -58 50 -3 58 -12 79 -34 80 -5 0 -8 -10 -8 -22 0 -20 -1 -21
-20 -3 -24 22 -25 29 -5 48 15 16 18 16 72 3z m-85 -103 c26 -25 37 -53 21
-53 -15 0 -73 61 -68 71 9 14 17 11 47 -18z m504 -51 c-10 -2 -24 -1 -33 2
-12 5 -13 9 -3 21 11 14 15 14 33 -2 17 -16 17 -18 3 -21z m3058 -37 c-6 -16
-24 -21 -24 -7 0 11 11 22 21 22 5 0 6 -7 3 -15z m-79 -57 c-6 -14 -63 -33
-72 -24 -4 4 69 43 75 40 1 0 0 -8 -3 -16z m585 -61 c0 -14 -49 -42 -58 -33
-5 6 38 45 51 46 4 0 7 -6 7 -13z m-1617 -52 c4 -8 2 -17 -4 -20 -12 -8 -79
14 -79 26 0 16 77 11 83 -6z m1401 -10 c-1 -5 -16 -13 -35 -16 -19 -4 -53 -11
-76 -17 -24 -5 -43 -6 -43 -2 0 7 10 12 85 38 36 12 70 11 69 -3z m-219 -54
c16 -27 -111 -53 -243 -51 -37 1 -64 -5 -88 -19 -36 -22 -98 -28 -109 -12 -3
5 -21 7 -40 4 -23 -4 -35 -2 -35 6 0 14 13 19 66 25 23 2 54 12 69 22 22 14
32 16 58 6 36 -13 256 1 285 18 22 12 29 12 37 1z m-1301 -76 c21 -7 52 -11
70 -9 17 3 51 1 76 -4 l45 -8 -35 -22 c-40 -25 -63 -27 -109 -11 -28 10 -37 9
-61 -10 -16 -11 -39 -21 -52 -21 -24 0 -123 -56 -171 -96 -16 -13 -32 -24 -36
-24 -17 0 3 69 27 93 61 60 111 97 129 97 10 0 28 7 39 15 23 18 29 18 78 0z
m576 -35 c0 -6 -11 -21 -25 -34 -14 -13 -25 -31 -25 -40 0 -9 -11 -21 -24 -26
-13 -5 -27 -14 -31 -19 -3 -6 -14 -11 -23 -11 -9 -1 -35 -9 -57 -20 -22 -11
-51 -19 -65 -20 -15 0 -30 -4 -35 -8 -9 -8 -84 -32 -99 -32 -15 0 -4 30 15 40
21 12 40 27 82 66 48 44 95 74 116 74 13 0 37 6 54 14 55 25 117 33 117 16z
m-2530 -139 c0 -33 -15 -49 -23 -27 -7 18 3 56 14 56 5 0 9 -13 9 -29z m2647
2 c-9 -9 -19 -14 -23 -11 -10 10 6 28 24 28 15 0 15 -1 -1 -17z m83 7 c0 -5
-4 -10 -9 -10 -6 0 -13 5 -16 10 -3 6 1 10 9 10 9 0 16 -4 16 -10z m1259 -1
c17 -6 31 -17 31 -23 0 -7 -31 -25 -69 -41 -39 -15 -72 -34 -75 -41 -3 -8 -13
-14 -23 -14 -10 0 -29 -9 -43 -20 -32 -25 -47 -25 -55 0 -3 11 -10 20 -14 20
-4 0 -34 -20 -65 -45 -32 -25 -62 -45 -67 -45 -5 0 -27 -17 -49 -39 -55 -54
-225 -115 -286 -103 -16 3 -44 -5 -72 -19 -26 -13 -56 -24 -67 -25 -65 -2 -74
-5 -80 -23 -5 -17 -28 -31 -55 -36 -40 -7 -70 -22 -92 -46 -34 -37 -57 -38
-55 -2 3 35 -28 44 -38 12 -6 -17 -9 -19 -16 -8 -14 22 -11 55 6 69 11 9 14
22 10 42 -8 35 2 48 74 96 79 52 101 73 101 94 0 13 15 26 47 40 27 12 61 35
77 52 32 34 14 32 251 26 95 -2 147 0 162 8 19 11 51 17 203 41 25 4 51 10 58
15 8 4 46 12 85 16 40 4 75 8 78 9 3 0 20 -4 38 -10z m-1379 -33 c0 -8 9 -18
20 -21 35 -11 22 -47 -23 -64 -40 -15 -68 -14 -88 5 -40 36 -189 -28 -189 -82
0 -22 -78 -97 -127 -123 -21 -11 -53 -33 -71 -50 -18 -17 -42 -31 -53 -31 -11
0 -31 -7 -44 -16 -13 -9 -29 -13 -35 -9 -23 14 -7 32 46 54 36 15 59 32 64 47
5 12 25 30 44 39 50 24 124 93 109 103 -6 4 -14 19 -18 34 -6 23 -2 28 27 41
41 18 90 31 188 52 41 8 82 20 90 25 23 15 60 12 60 -4z m107 -8 c-3 -8 -6 -5
-6 6 -1 11 2 17 5 13 3 -3 4 -12 1 -19z m-573 -125 c-5 -27 -10 -31 -39 -30
-33 1 -33 1 -19 28 7 15 24 29 36 31 30 5 29 6 22 -29z m782 7 c24 0 34 -5 34
-15 0 -23 -77 -91 -130 -116 -71 -34 -190 -113 -190 -126 0 -7 -11 -20 -25
-29 -14 -9 -25 -21 -25 -28 0 -10 -31 -42 -72 -75 -16 -12 -18 -11 -18 3 0 9
11 22 25 28 14 6 24 16 22 22 -2 6 -1 23 4 38 6 22 4 26 -9 21 -45 -14 -62
-28 -62 -50 0 -17 -6 -23 -21 -23 -20 0 -76 -57 -71 -72 1 -4 -5 -8 -13 -8
-19 0 -19 11 -1 35 16 23 10 45 -13 45 -21 0 76 92 144 138 28 18 66 37 86 42
20 6 53 21 73 35 20 14 40 25 44 25 5 0 26 18 47 41 45 45 103 81 123 74 8 -3
29 -5 48 -5z m-726 -16 c0 -8 -5 -12 -10 -9 -6 4 -8 11 -5 16 9 14 15 11 15
-7z m-2310 -134 c13 -24 3 -90 -14 -90 -6 0 -20 -3 -31 -5 -39 -10 -47 7 -26
56 11 25 23 48 27 52 13 13 33 7 44 -13z m2831 -153 c-1 -4 -1 -14 -1 -22 0
-20 -144 -165 -164 -165 -33 0 -18 25 75 121 67 68 92 87 90 66z m-2861 -54
c0 -5 -4 -15 -10 -23 -11 -18 -25 -7 -17 15 6 15 27 21 27 8z m2942 -45 c-9
-9 -12 -7 -12 12 0 19 3 21 12 12 9 -9 9 -15 0 -24z m-327 -17 c-3 -6 -11 -11
-17 -11 -6 0 -6 6 2 15 14 17 26 13 15 -4z m-138 -38 c-8 -8 -23 -13 -33 -11
-16 4 -15 7 9 16 15 6 28 19 28 29 1 16 2 16 6 -1 3 -10 -2 -25 -10 -33z m383
12 c0 -9 -9 -15 -22 -15 -22 1 -23 1 -4 15 25 19 26 19 26 0z m-195 -65 c-3
-5 -10 -10 -16 -10 -5 0 -9 5 -9 10 0 6 7 10 16 10 8 0 12 -4 9 -10z m-587
-32 c-7 -19 -38 -22 -38 -4 0 10 9 16 21 16 12 0 19 -5 17 -12z m-1834 -46
c25 -36 28 -45 16 -52 -24 -15 -28 -12 -50 30 -40 79 -18 93 34 22z m1696 -65
c0 -7 -12 -24 -27 -38 -16 -14 -50 -53 -76 -87 -38 -50 -53 -62 -76 -62 -37 0
-64 -30 -56 -63 5 -20 2 -28 -16 -38 -17 -9 -24 -9 -27 0 -2 6 -14 8 -28 5
-13 -3 -24 -2 -24 3 0 15 120 141 156 164 39 24 65 45 117 96 34 33 57 42 57
20z m936 -16 c-3 -5 -20 -11 -38 -13 -18 -3 -41 -8 -50 -13 -10 -4 -18 -3 -18
2 0 10 54 30 88 32 13 0 21 -3 18 -8z m164 -76 c-7 -9 -27 -15 -49 -14 -21 1
-28 3 -16 6 11 3 24 9 30 14 5 5 18 9 28 9 16 0 17 -3 7 -15z m1030 -209 c0
-3 -4 -8 -10 -11 -5 -3 -10 -1 -10 4 0 6 5 11 10 11 6 0 10 -2 10 -4z m-89
-35 c12 6 36 8 55 4 23 -4 34 -2 34 6 0 18 64 4 129 -28 31 -15 68 -26 82 -24
19 1 28 -3 31 -17 5 -19 59 -52 85 -52 7 0 13 -6 13 -14 0 -8 14 -16 33 -20
17 -3 39 -8 47 -10 8 -3 18 -5 22 -5 4 -1 31 -20 60 -44 71 -56 149 -107 166
-107 3 0 -5 11 -17 24 -13 13 -21 32 -19 41 4 22 36 -9 123 -120 124 -160 185
-255 197 -308 13 -55 44 -117 59 -117 12 0 69 -122 69 -149 0 -18 -4 -20 -27
-15 -16 4 -36 16 -45 28 -14 17 -18 18 -18 5 0 -9 10 -23 21 -31 16 -10 24
-29 30 -73 4 -33 6 -62 3 -64 -10 -10 -39 16 -44 40 -5 19 -12 24 -39 24 -24
1 -39 8 -55 27 -11 15 -35 33 -52 40 -17 7 -55 35 -84 61 -29 26 -59 46 -66
43 -8 -3 -22 6 -31 20 -37 53 -76 94 -89 94 -7 0 -26 17 -41 38 -31 41 -45 53
-52 46 -3 -3 -1 -8 5 -12 6 -4 21 -26 33 -49 11 -23 39 -59 62 -80 23 -21 47
-50 55 -64 7 -15 48 -62 91 -105 74 -75 125 -108 221 -144 20 -8 32 -19 32
-31 0 -13 14 -25 43 -36 23 -10 46 -16 50 -15 15 5 77 -22 77 -33 0 -5 5 -3
10 5 7 11 10 11 10 2 0 -7 5 -10 10 -7 6 3 15 3 21 -1 8 -5 8 -9 -1 -14 -13
-8 46 -70 66 -70 6 0 18 -9 25 -19 8 -11 58 -35 111 -55 53 -20 108 -47 122
-61 14 -14 30 -25 35 -25 6 0 10 -18 9 -39 -1 -31 6 -48 32 -81 35 -44 60 -85
82 -132 7 -16 16 -28 19 -28 13 0 21 -62 10 -73 -15 -15 -35 5 -65 65 -53 106
-101 178 -119 178 -21 0 -14 -17 15 -38 25 -18 24 -52 -2 -52 -11 0 -20 -4
-20 -10 0 -18 -42 -10 -65 12 -12 12 -30 23 -40 24 -15 2 -15 0 3 -19 27 -28
39 -77 21 -77 -19 1 -55 31 -62 53 -4 9 -13 17 -22 17 -23 0 -18 -16 11 -35
20 -13 23 -19 13 -31 -16 -20 -35 -2 -43 40 -5 25 -13 36 -31 40 -13 3 -26 15
-30 25 -3 11 -32 36 -63 57 -31 20 -72 46 -89 58 -40 26 -42 40 -5 31 71 -17
77 -18 67 -7 -5 6 -32 22 -58 36 -40 22 -51 24 -67 13 -22 -13 -26 -27 -8 -27
8 0 9 -3 2 -10 -13 -13 -67 3 -95 29 -12 11 -40 33 -63 48 -22 16 -56 43 -75
60 -30 27 -38 30 -46 19 -20 -26 -50 -21 -104 17 -29 21 -55 36 -58 34 -9 -9
26 -64 51 -81 15 -9 26 -22 26 -28 0 -6 10 -23 23 -36 l22 -24 -24 7 c-13 4
-36 22 -52 40 -21 23 -47 38 -93 51 -79 23 -105 39 -88 56 7 7 12 16 12 20 0
13 -38 9 -44 -4 -3 -7 -3 -3 0 10 7 27 -3 28 -33 3 -30 -25 -30 -73 1 -114 27
-37 50 -165 38 -212 -7 -23 -10 -26 -15 -12 -3 9 -12 14 -20 11 -17 -6 -31 11
-46 57 -6 20 -23 47 -36 59 -14 13 -25 30 -25 38 0 17 -54 94 -118 170 -61 71
-116 103 -167 97 -22 -3 -42 -10 -46 -16 -4 -7 -11 -9 -17 -5 -14 8 -25 -25
-12 -38 5 -5 10 -24 10 -41 0 -18 15 -56 35 -89 36 -60 40 -73 29 -100 -7 -18
-44 -22 -44 -5 0 5 -5 7 -10 4 -8 -5 -8 -11 0 -20 6 -7 8 -20 4 -29 -8 -20
-44 -21 -44 -1 0 9 -6 18 -14 21 -8 3 -16 17 -20 32 -3 15 -25 48 -48 74 -24
25 -51 58 -60 71 -14 20 -99 77 -114 77 -12 0 -1 -30 16 -45 11 -10 20 -23 20
-28 0 -6 -8 -3 -17 5 -10 9 -33 23 -50 32 -18 9 -33 22 -33 29 0 13 -58 43
-67 33 -3 -3 6 -11 20 -17 32 -15 43 -39 18 -39 -32 0 -32 -13 1 -47 l32 -33
-28 0 c-15 0 -44 13 -64 29 -32 25 -110 56 -119 48 -1 -2 -4 -14 -5 -26 -3
-19 6 -28 49 -50 45 -22 81 -56 71 -66 -7 -8 -89 35 -112 58 -47 47 -94 69
-134 63 -94 -14 -118 -19 -135 -31 -13 -9 -27 -9 -57 -1 -39 10 -42 9 -70 -23
-33 -35 -45 -36 -161 -16 -46 9 -108 -28 -143 -83 -13 -20 -31 -43 -40 -51
-30 -25 -19 23 17 70 19 24 37 56 40 70 4 14 18 31 32 37 14 6 25 18 25 26 0
23 48 74 73 78 14 2 23 11 25 25 2 12 26 41 53 64 60 50 60 70 2 74 -39 3 -43
1 -59 -33 l-18 -37 -9 42 c-8 34 -15 44 -40 52 -38 14 -37 14 -37 -8 0 -27
-15 -34 -40 -21 -17 9 -26 7 -51 -14 -27 -23 -58 -32 -97 -27 -7 1 -15 -5 -18
-14 -9 -23 -23 -18 -30 10 -4 16 1 36 16 60 l22 36 -20 19 c-11 11 -26 36 -32
57 -7 21 -17 43 -22 50 -5 7 -7 17 -3 24 4 6 2 22 -5 35 -11 20 -11 27 2 41 9
10 18 27 20 38 3 14 11 19 27 17 21 -2 23 1 17 28 -3 20 -2 29 4 25 18 -11 50
6 50 26 0 12 7 19 20 19 11 0 20 6 20 14 0 7 12 21 26 31 15 10 23 22 20 31
-9 24 12 64 34 64 17 0 19 -4 14 -25 -5 -22 -3 -25 19 -25 20 0 25 -4 22 -20
-6 -33 14 -33 52 0 20 18 49 37 65 42 27 9 28 12 14 27 -21 23 -20 28 4 34 12
3 20 14 20 27 0 18 4 21 23 16 12 -4 31 -8 42 -10 11 -2 38 -15 59 -29 21 -15
46 -27 55 -27 10 0 22 -5 29 -12 7 -7 12 -8 12 -4 0 5 7 3 15 -4 9 -7 18 -10
22 -7 10 11 -42 53 -116 93 -39 21 -71 44 -71 51 0 16 3 16 47 -2 46 -19 73
-19 73 0 0 9 8 18 18 22 26 10 52 40 47 56 -3 7 3 21 13 30 17 16 22 16 57 1
30 -12 44 -13 62 -5 30 14 22 28 -20 39 -28 7 -32 13 -32 41 0 30 4 34 51 50
28 10 61 25 75 34 13 8 45 18 70 22 60 9 77 19 61 38 -7 7 -9 17 -5 20 10 11
91 8 98 -3 10 -16 48 -12 42 5 -8 20 101 25 165 7 36 -10 53 -10 69 -1z
m-2385 -36 c-3 -8 -11 -12 -18 -10 -7 3 -25 -6 -40 -20 -31 -29 -70 -36 -47
-9 7 9 18 26 24 38 7 13 20 21 37 21 14 0 30 4 34 8 11 10 18 -9 10 -28z
m-1521 -759 c1 -71 -3 -100 -12 -103 -7 -3 -13 -11 -13 -18 0 -6 -9 -20 -20
-30 -11 -10 -20 -31 -20 -46 0 -19 -7 -32 -21 -40 -17 -8 -20 -18 -17 -45 2
-20 0 -33 -6 -31 -6 2 -9 24 -7 50 2 39 0 47 -15 47 -24 0 -54 -29 -54 -51 0
-10 -8 -23 -18 -28 -59 -32 -56 77 4 137 8 7 14 19 14 27 0 7 25 44 55 83 30
38 62 88 71 111 13 33 21 41 38 39 20 -3 21 -9 21 -102z m2225 49 c0 -3 -16
-25 -35 -51 -19 -25 -35 -52 -35 -60 0 -9 -11 -14 -30 -14 -25 0 -30 -4 -30
-23 0 -34 -28 -67 -56 -67 -22 0 -23 3 -14 20 16 29 -1 25 -64 -15 -63 -40
-76 -43 -76 -16 0 27 -10 51 -22 51 -7 0 -9 -16 -5 -40 4 -30 2 -40 -9 -40 -7
0 -16 11 -20 25 -8 30 -18 31 -45 4 -22 -22 -49 -19 -49 6 0 23 -15 18 -48
-16 -32 -32 -62 -34 -62 -4 0 23 -45 10 -100 -28 -36 -25 -53 -31 -91 -29 -34
1 -53 -4 -72 -18 -14 -11 -31 -20 -39 -20 -7 0 -24 -7 -36 -16 -12 -8 -22 -12
-22 -7 0 4 -4 2 -9 -5 -7 -12 -12 -12 -30 0 -18 11 -23 11 -30 0 -4 -7 -20
-20 -35 -27 -25 -14 -27 -13 -21 5 10 30 -5 24 -52 -22 -43 -42 -43 -42 -43
-16 0 15 6 31 14 35 8 4 18 20 21 36 6 24 5 26 -11 20 -11 -4 -25 -15 -32 -24
-9 -13 -25 -18 -63 -17 -32 1 -54 -3 -59 -12 -4 -7 -13 -9 -20 -5 -7 4 -35
-18 -73 -57 -34 -36 -70 -67 -79 -71 -27 -10 -22 19 6 44 13 12 27 31 30 43 5
20 105 96 126 96 6 0 10 6 10 14 0 13 24 28 123 79 38 20 38 20 58 -1 10 -12
19 -26 19 -31 0 -6 7 -8 15 -5 12 5 13 10 4 20 -6 8 -10 14 -8 14 2 1 28 2 58
4 33 2 59 9 65 18 20 27 166 61 166 39 0 -7 15 -4 38 8 20 10 48 22 60 26 13
4 43 20 66 35 22 16 52 29 66 29 51 2 125 13 136 22 5 4 19 6 31 3 11 -3 24
-1 27 5 4 6 20 11 35 11 16 0 34 7 41 15 7 8 26 14 44 13 17 -1 44 2 59 6 27
8 28 7 22 -20 -3 -16 -2 -23 1 -16 9 20 62 44 69 32 4 -6 1 -17 -5 -25 -20
-24 4 -17 51 15 40 27 69 38 69 25z m90 -63 c0 -13 -61 -92 -71 -92 -18 0 -9
49 14 74 21 24 57 36 57 18z m84 -65 c-3 -135 -3 -139 -19 -123 -20 20 -29 94
-16 129 13 35 36 30 35 -6z m2719 -149 c18 -12 34 -23 37 -26 3 -2 -3 -10 -13
-17 -16 -12 -22 -11 -43 8 -13 11 -24 29 -24 39 0 23 5 23 43 -4z m-2788 -72
c-4 -20 -11 -36 -16 -36 -10 0 -12 34 -3 68 10 37 26 9 19 -32z m-1495 21 c0
-2 -9 -12 -19 -21 -13 -11 -21 -14 -26 -7 -3 6 4 15 17 20 28 12 28 12 28 8z
m1925 -47 c3 -5 1 -10 -4 -10 -6 0 -11 5 -11 10 0 6 2 10 4 10 3 0 8 -4 11
-10z m85 6 c0 -3 -4 -8 -10 -11 -5 -3 -10 -1 -10 4 0 6 5 11 10 11 6 0 10 -2
10 -4z m-263 -39 c-6 -20 -27 -19 -27 2 0 14 5 19 15 14 9 -3 14 -10 12 -16z
m143 -13 c0 -8 9 -14 19 -14 21 0 37 -17 27 -28 -4 -3 -15 -1 -24 6 -43 30
-63 33 -81 10 -17 -21 -51 -20 -51 1 0 20 80 54 103 43 4 -2 7 -10 7 -18z
m2320 16 c0 -5 -4 -10 -10 -10 -5 0 -10 5 -10 10 0 6 5 10 10 10 6 0 10 -4 10
-10z m-4320 -24 c0 -3 -4 -8 -10 -11 -5 -3 -10 -1 -10 4 0 6 5 11 10 11 6 0
10 -2 10 -4z m3290 -26 c0 -5 6 -10 14 -10 16 0 42 -28 33 -36 -3 -3 -22 5
-41 18 -20 14 -33 28 -29 31 10 10 23 8 23 -3z m130 -45 c23 -25 23 -25 2 -25
-11 0 -24 5 -27 11 -4 6 -14 8 -22 5 -10 -4 -13 -2 -10 8 3 8 1 17 -6 20 -7 2
0 5 14 5 15 1 35 -9 49 -24z m1170 -41 c0 -2 -7 -4 -15 -4 -8 0 -15 4 -15 10
0 5 7 7 15 4 8 -4 15 -8 15 -10z m-1259 -46 c11 -21 11 -22 -4 -9 -10 7 -17
17 -17 22 0 15 9 10 21 -13z m-4326 -74 c52 -52 41 -98 -30 -122 -29 -9 -29
-10 -8 -19 22 -8 22 -9 -10 -34 -18 -15 -43 -30 -56 -34 -12 -4 -31 -14 -40
-23 -10 -10 -32 -29 -49 -45 -18 -15 -32 -33 -32 -41 0 -8 -7 -17 -15 -20 -9
-3 -23 -22 -31 -41 -12 -29 -20 -35 -43 -35 -33 0 -61 -22 -61 -48 0 -9 -9
-28 -20 -42 -16 -21 -22 -22 -29 -11 -13 21 -37 0 -52 -47 -6 -20 -20 -44 -29
-55 -10 -10 -21 -34 -25 -53 -7 -41 -25 -45 -25 -6 0 36 29 122 41 122 5 0 9
9 9 19 0 31 11 50 24 45 9 -4 16 16 25 67 10 59 46 147 71 169 3 3 32 46 64
95 79 120 94 135 128 135 21 0 31 6 38 24 7 19 18 26 47 29 56 6 79 0 108 -29z
m3177 1 c0 -5 -5 -11 -11 -13 -6 -2 -11 4 -11 13 0 9 5 15 11 13 6 -2 11 -8
11 -13z m-2 -47 c0 -33 -14 -58 -31 -58 -10 0 -21 5 -24 10 -10 16 4 48 23 53
29 8 32 7 32 -5z m240 -3 c0 -8 -4 -15 -9 -15 -5 0 -14 7 -21 15 -10 13 -9 15
9 15 12 0 21 -6 21 -15z m-877 -21 c18 -4 27 -12 27 -24 0 -32 -22 -69 -43
-72 -12 -2 -24 -16 -31 -38 -15 -46 -46 -54 -46 -11 0 36 -16 49 -25 21 -3
-11 -11 -20 -16 -20 -5 0 -9 -19 -9 -42 0 -50 -29 -103 -65 -120 -14 -6 -25
-15 -25 -20 0 -4 -7 -8 -15 -8 -8 0 -15 -4 -15 -10 0 -5 -9 -14 -21 -21 -30
-15 -49 3 -31 31 15 24 16 70 1 70 -6 0 -13 -9 -16 -20 -3 -11 -12 -20 -20
-20 -23 0 -90 -38 -97 -55 -3 -9 -6 -25 -6 -35 0 -11 -8 -23 -17 -28 -10 -6
-18 -25 -20 -53 -3 -49 -30 -129 -43 -129 -15 0 -22 20 -12 33 5 7 12 37 15
68 l6 56 -32 0 c-18 0 -26 -2 -18 -5 11 -4 11 -6 0 -13 -11 -6 -11 -11 -2 -20
8 -8 8 -24 -4 -62 -12 -41 -13 -55 -3 -70 9 -16 9 -23 -4 -35 -21 -21 -27 -13
-30 40 -4 55 -15 90 -26 83 -12 -8 -33 33 -26 51 3 8 1 14 -3 14 -5 0 -11 -6
-14 -12 -2 -7 -7 -10 -11 -6 -4 3 -2 16 4 28 6 12 9 33 5 47 -4 16 -2 22 5 18
15 -10 12 11 -5 25 -37 31 -85 -32 -51 -69 21 -23 21 -26 -10 -54 -14 -14 -29
-40 -33 -58 -7 -35 -25 -46 -50 -30 -12 8 -13 14 -3 36 7 15 8 24 2 20 -5 -3
-10 0 -10 8 0 8 7 17 15 21 16 6 21 36 6 36 -5 0 -14 -7 -21 -15 -7 -8 -19
-15 -26 -15 -10 0 -14 -13 -14 -44 0 -25 -5 -48 -10 -51 -6 -4 -8 -15 -5 -25
3 -10 1 -21 -4 -24 -5 -4 -19 -35 -31 -71 -24 -73 -46 -88 -36 -25 3 22 9 58
12 80 6 35 4 39 -10 34 -9 -3 -16 -1 -16 5 0 5 -9 19 -21 30 -13 12 -22 34
-23 60 -3 55 -22 74 -36 37 -5 -15 -10 -35 -10 -44 0 -9 -4 -23 -9 -31 -7 -11
-12 -6 -19 20 -8 26 -10 29 -11 11 -1 -28 -26 -56 -42 -47 -18 12 1 68 36 105
31 33 59 110 39 110 -5 0 -20 -16 -34 -36 -31 -44 -100 -118 -100 -108 0 4 7
15 16 25 25 28 12 47 -28 41 -31 -4 -98 -61 -98 -84 0 -5 -5 -6 -10 -3 -7 4
-9 -2 -5 -17 3 -13 0 -30 -7 -39 -16 -19 -64 -40 -72 -32 -14 14 -4 31 24 43
37 15 42 43 6 34 -36 -9 -37 6 -5 61 63 111 61 105 44 105 -8 0 -15 -5 -15
-10 0 -6 -6 -10 -12 -8 -21 4 -59 -13 -52 -23 3 -5 -8 -23 -25 -39 -18 -15
-37 -43 -43 -60 -8 -25 -13 -29 -19 -18 -9 17 -1 58 12 58 5 0 9 5 9 10 0 26
-40 1 -53 -32 -7 -20 -37 -25 -37 -7 0 7 -10 5 -25 -5 -14 -9 -25 -12 -25 -6
0 17 -28 11 -39 -7 -10 -17 -12 -17 -25 0 -18 23 -24 22 -28 -5 -2 -13 -10
-23 -18 -23 -12 0 -15 17 -15 93 0 97 -13 121 -34 61 -6 -17 -14 -28 -19 -25
-4 2 -27 -13 -50 -35 -24 -21 -49 -39 -56 -39 -8 0 -12 -7 -10 -17 5 -20 -50
-58 -67 -47 -13 7 5 29 51 63 19 14 36 33 36 41 1 8 3 21 5 28 6 20 -32 42
-39 23 -3 -8 -18 -27 -34 -43 -26 -26 -40 -32 -60 -29 -5 0 -8 -5 -8 -12 0 -8
-12 -20 -26 -27 -14 -8 -35 -27 -46 -42 -31 -45 -42 -35 -35 31 5 47 3 63 -9
75 -12 13 -19 13 -36 3 -16 -9 -22 -9 -25 0 -8 23 -42 -5 -59 -48 -9 -21 -19
-39 -23 -39 -3 0 -22 -29 -40 -65 -25 -46 -41 -65 -54 -65 -18 0 -19 5 -13 46
3 26 10 52 15 58 5 6 12 31 16 56 5 28 19 58 39 81 17 20 47 64 66 99 19 34
56 84 82 112 26 28 48 54 48 57 0 10 97 80 128 92 57 22 132 27 292 18 154 -9
407 -21 475 -22 183 -3 666 13 685 23 14 8 72 11 168 11 89 -1 175 4 217 12
79 16 137 19 178 11z m453 -81 c-11 -11 -19 6 -11 24 8 17 8 17 12 0 3 -10 2
-21 -1 -24z m2449 -88 c1 -11 5 -28 10 -37 4 -11 3 -18 -3 -18 -6 0 -15 14
-21 30 -5 17 -14 30 -19 30 -13 0 -62 73 -62 93 0 24 93 -72 95 -98z m-185 54
c7 -11 9 -23 6 -26 -8 -9 -36 17 -36 33 0 21 18 17 30 -7z m255 -39 c3 -5 1
-10 -4 -10 -6 0 -11 5 -11 10 0 6 2 10 4 10 3 0 8 -4 11 -10z m-259 -61 c50
-13 58 -39 14 -49 -18 -4 -26 -14 -28 -33 -4 -35 -20 -35 -27 1 -4 15 -13 39
-20 53 -22 41 -11 46 61 28z m154 -9 c0 -5 -4 -10 -9 -10 -6 0 -13 5 -16 10
-3 6 1 10 9 10 9 0 16 -4 16 -10z m-110 -80 c0 -5 -4 -10 -10 -10 -5 0 -10 5
-10 10 0 6 5 10 10 10 6 0 10 -4 10 -10z m473 -56 c5 -21 13 -47 18 -56 12
-23 11 -28 -1 -28 -6 0 -14 8 -17 18 -4 9 -15 28 -25 42 -11 16 -15 34 -12 48
9 33 28 21 37 -24z m-253 -34 c17 -24 18 -30 6 -30 -19 0 -46 27 -46 46 0 23
17 16 40 -16z m-4770 -79 c0 -11 -4 -22 -9 -25 -11 -7 -23 22 -15 35 9 16 24
10 24 -10z m570 -66 c0 -8 -4 -15 -10 -15 -5 0 -7 7 -4 15 4 8 8 15 10 15 2 0
4 -7 4 -15z m-574 -43 c-12 -11 -18 7 -10 30 l8 23 4 -23 c2 -13 1 -26 -2 -30z
m264 24 c0 -8 -9 -18 -20 -21 -11 -3 -20 -13 -20 -21 0 -17 -68 -114 -81 -114
-14 0 -10 13 11 40 13 17 20 41 20 75 0 39 3 46 11 33 13 -23 31 -23 52 2 20
24 27 25 27 6z m676 -64 c-12 -11 -18 7 -10 30 l8 23 4 -23 c2 -13 1 -26 -2
-30z m-123 -21 c3 -12 -3 -27 -16 -38 -20 -17 -20 -17 -14 0 4 10 7 27 7 38 0
25 16 25 23 0z m2997 -132 c36 -5 76 -10 90 -11 14 0 66 -9 115 -19 50 -10
137 -27 195 -39 165 -32 240 -49 261 -60 10 -6 47 -15 82 -20 60 -8 142 -33
209 -64 18 -8 50 -22 72 -30 39 -16 179 -116 192 -138 4 -7 2 -14 -4 -16 -20
-6 -13 -32 9 -32 16 0 19 4 14 21 -6 19 -5 20 17 8 38 -20 162 -138 180 -172
11 -18 14 -35 9 -40 -14 -14 -29 0 -51 43 -11 22 -33 46 -48 54 -15 8 -40 26
-55 40 -16 15 -33 24 -38 20 -16 -10 2 -76 33 -122 18 -26 27 -50 24 -59 -5
-13 -18 -5 -57 38 -28 30 -55 65 -62 78 -14 28 -37 40 -37 19 0 -7 8 -25 18
-38 19 -28 24 -70 7 -70 -6 0 -22 11 -34 24 -13 14 -31 24 -40 24 -9 0 -24 3
-33 7 -23 9 -24 -17 -2 -39 8 -9 11 -16 6 -16 -5 0 -17 9 -27 20 -21 24 -53
26 -61 5 -4 -8 -14 -15 -24 -15 -18 0 -131 71 -175 110 -11 10 -32 20 -47 24
-16 3 -28 11 -28 16 0 20 -85 65 -132 69 -5 1 -8 8 -8 16 0 8 -11 17 -25 21
-14 3 -25 10 -25 15 0 5 -8 9 -18 9 -10 0 -31 14 -47 30 -33 34 -55 39 -55 12
0 -26 51 -90 75 -94 11 -2 21 -11 23 -20 3 -14 -4 -18 -32 -18 -32 0 -41 7
-92 71 -38 48 -60 67 -66 61 -7 -7 -23 -4 -50 10 -49 26 -65 15 -43 -29 14
-29 41 -47 108 -72 27 -11 39 -51 15 -51 -6 0 -2 -10 10 -23 12 -13 22 -31 22
-41 0 -13 -13 -7 -58 28 -32 25 -64 46 -71 46 -7 0 -20 9 -29 19 -23 27 -89
62 -105 55 -8 -3 -20 2 -27 10 -10 13 -9 17 4 21 9 3 23 7 32 10 8 3 36 -11
61 -30 58 -44 93 -47 43 -4 -52 46 -109 72 -163 75 -59 3 -71 -15 -33 -51 26
-24 35 -68 16 -80 -5 -3 -41 19 -78 49 -38 31 -73 56 -77 56 -5 0 -17 7 -27
17 -10 9 -18 12 -18 7 0 -5 9 -15 20 -22 11 -7 20 -18 20 -26 0 -8 14 -24 31
-37 79 -62 82 -65 70 -88 -7 -11 -21 -21 -31 -21 -15 0 -20 -7 -20 -26 l0 -26
-41 34 c-54 44 -142 97 -151 91 -16 -9 -7 -38 18 -64 25 -26 26 -61 1 -41 -16
13 -126 72 -134 72 -3 0 14 -16 40 -36 47 -37 62 -58 51 -76 -4 -6 1 -8 15 -3
15 4 21 2 21 -9 0 -8 6 -19 13 -23 21 -13 47 -61 47 -85 -1 -20 -2 -21 -13 -7
-17 22 -53 40 -69 34 -15 -6 -44 21 -62 58 -7 12 -39 42 -73 67 -34 25 -66 55
-72 68 -6 12 -17 22 -26 22 -8 0 -21 12 -29 28 -19 37 -75 88 -108 101 -34 13
-37 0 -8 -36 18 -23 18 -26 3 -49 -14 -22 -18 -23 -37 -11 -11 8 -32 30 -45
50 -13 21 -32 37 -40 37 -19 0 -81 54 -81 69 0 19 -32 12 -37 -8 -4 -16 -11
-18 -44 -14 -45 6 -49 0 -14 -23 19 -13 28 -14 39 -5 18 15 55 -18 85 -76 12
-24 28 -43 35 -43 22 0 78 -88 70 -112 -3 -12 -11 -17 -21 -14 -8 3 -18 6 -22
6 -15 0 -51 37 -51 53 0 23 -69 79 -91 74 -11 -3 -24 2 -32 12 -6 10 -20 20
-29 24 -19 7 -34 -8 -18 -18 16 -10 12 -23 -10 -30 -13 -4 -34 1 -56 14 -19
12 -38 21 -41 21 -3 0 -3 -15 -1 -34 l4 -34 -25 19 c-17 14 -27 16 -37 8 -9
-8 -17 -4 -29 14 -26 40 -92 79 -118 71 -12 -5 -29 -7 -37 -5 -10 2 -12 -1 -5
-7 6 -6 25 -12 44 -14 39 -3 54 -27 22 -35 -25 -6 -27 -21 -6 -30 12 -4 15
-18 14 -54 -3 -51 11 -74 56 -94 19 -8 19 -9 -2 -12 -19 -4 -21 -9 -16 -34 4
-22 2 -29 -11 -29 -9 0 -16 4 -16 9 0 5 -8 12 -19 16 -31 9 -60 40 -52 53 10
16 1 72 -11 72 -5 0 -12 -10 -15 -21 -6 -21 -7 -21 -19 -4 -12 16 -14 16 -36
1 -43 -30 -91 -13 -57 21 6 6 8 16 5 22 -14 23 -55 -12 -85 -74 -30 -60 -34
-64 -74 -70 -57 -10 -67 -20 -67 -71 0 -41 -6 -49 -32 -45 -5 0 -8 -4 -8 -9 0
-6 -7 -10 -15 -10 -8 0 -15 9 -15 20 0 14 5 18 17 13 11 -4 14 -3 9 5 -4 6
-22 14 -41 18 -24 4 -32 10 -28 20 13 36 -80 59 -130 33 -36 -20 -92 -72 -89
-85 1 -6 -4 -17 -12 -23 -11 -9 -19 -9 -36 1 -17 11 -22 11 -30 -2 -5 -8 -10
-23 -10 -32 0 -11 -5 -15 -15 -12 -39 15 0 160 57 209 21 17 38 36 38 40 0 15
101 105 149 132 25 15 58 36 72 48 47 38 318 165 353 165 13 0 44 12 70 26 25
14 85 34 133 45 49 11 144 35 213 54 148 40 165 43 295 51 55 3 143 10 195 14
115 10 450 3 540 -11z m-871 -416 c2 -2 -3 -3 -11 -3 -9 0 -19 7 -22 16 -6 15
-4 15 11 3 10 -7 20 -15 22 -16z m-131 -38 c6 -14 15 -25 20 -25 15 0 74 -99
70 -118 -2 -12 -15 -2 -46 38 -53 69 -55 71 -81 93 -12 10 -19 22 -16 27 12
19 42 10 53 -15z m1674 -6 c16 -7 26 -15 23 -17 -7 -7 -85 29 -85 40 0 4 8 4
18 -1 9 -5 29 -14 44 -22z m170 -119 c4 0 8 -4 8 -10 0 -5 -12 -4 -27 3 -55
24 -66 34 -59 52 5 15 10 13 38 -14 17 -17 35 -31 40 -31z m-1277 30 c3 -5 2
-10 -4 -10 -5 0 -13 5 -16 10 -3 6 -2 10 4 10 5 0 13 -4 16 -10z m-260 -60
c27 -30 12 -34 -15 -5 -13 14 -19 25 -13 25 5 0 18 -9 28 -20z m1595 -5 c10
-12 9 -16 -5 -21 -17 -7 -38 13 -29 28 8 12 20 10 34 -7z m596 -20 c4 -8 12
-15 19 -15 24 0 63 -65 70 -116 3 -27 8 -59 11 -71 3 -15 0 -23 -10 -23 -19 0
-96 153 -96 190 0 20 -5 30 -15 30 -8 0 -15 5 -15 10 0 16 30 12 36 -5z m-541
-25 c3 -5 1 -10 -4 -10 -6 0 -11 5 -11 10 0 6 2 10 4 10 3 0 8 -4 11 -10z
m172 -12 c-3 -8 -6 -5 -6 6 -1 11 2 17 5 13 3 -3 4 -12 1 -19z m-1376 -14 c17
-21 20 -44 6 -38 -7 3 -20 16 -30 29 -14 20 -15 25 -4 25 8 0 21 -7 28 -16z
m1255 -90 c10 -21 24 -34 35 -34 15 0 19 -7 19 -33 0 -18 8 -44 17 -57 26 -37
52 -90 44 -90 -17 0 -140 160 -160 209 -17 39 -8 69 14 51 9 -7 23 -28 31 -46z
m-1176 -45 c0 -11 -10 -6 -52 29 -9 8 -14 21 -11 29 5 13 12 10 35 -16 15 -17
28 -36 28 -42z m-1915 -5 c-8 -20 -16 -71 -17 -113 -1 -51 -3 -61 -5 -31 -3
25 -8 49 -13 54 -12 12 -30 -34 -31 -77 0 -18 -3 -26 -6 -19 -3 8 -2 52 2 98
6 79 8 84 30 84 14 0 25 7 28 20 3 11 10 20 16 20 8 0 6 -12 -4 -36z m-295 -9
c0 -8 -4 -15 -9 -15 -13 0 -22 16 -14 24 11 11 23 6 23 -9z m4100 -86 c0 -6
-4 -7 -10 -4 -5 3 -10 11 -10 16 0 6 5 7 10 4 6 -3 10 -11 10 -16z m-6624 -54
c-3 -9 -11 -13 -16 -10 -8 5 -7 11 1 21 14 18 24 11 15 -11z m1054 15 c0 -5
-4 -10 -9 -10 -6 0 -13 5 -16 10 -3 6 1 10 9 10 9 0 16 -4 16 -10z m5620 -41
c0 -5 -4 -9 -10 -9 -5 0 -10 7 -10 16 0 8 5 12 10 9 6 -3 10 -10 10 -16z
m-5662 -44 c-3 -3 -9 2 -12 12 -6 14 -5 15 5 6 7 -7 10 -15 7 -18z m356 -6
c-25 -27 -37 -23 -18 6 9 14 20 22 26 19 5 -3 2 -14 -8 -25z m-2124 -49 c0
-11 -4 -20 -9 -20 -5 0 -7 9 -4 20 3 11 7 20 9 20 2 0 4 -9 4 -20z"/>
<path d="M6207 10373 c-4 -3 -7 -15 -7 -25 0 -20 -12 -23 -40 -8 -13 7 -21 6
-27 -2 -13 -21 -10 -31 20 -62 43 -48 29 -65 -20 -26 -14 11 -33 20 -42 20 -9
0 -27 12 -40 26 -27 28 -46 27 -46 -2 0 -20 -14 -22 -67 -8 -22 5 -28 3 -28
-9 0 -25 50 -68 134 -116 32 -18 70 -44 85 -57 14 -13 29 -24 34 -24 4 0 26
-17 50 -38 46 -43 87 -72 99 -72 15 0 8 29 -10 42 -10 7 -27 25 -37 41 -15 24
-16 33 -5 71 9 31 9 54 2 77 -17 57 -32 128 -32 154 0 24 -10 32 -23 18z"/>
<path d="M6350 10239 c-13 -8 -12 -12 5 -25 18 -14 20 -13 23 2 5 22 -10 35
-28 23z"/>
<path d="M7200 10215 c0 -8 -4 -15 -10 -15 -5 0 -10 -4 -10 -9 0 -6 12 -9 28
-8 24 2 27 -2 32 -38 5 -38 6 -39 18 -18 13 23 8 67 -11 91 -13 17 -47 15 -47
-3z"/>
<path d="M7120 10210 c0 -5 -14 -32 -31 -60 -29 -47 -30 -52 -15 -69 9 -10 16
-34 16 -54 0 -39 17 -58 31 -36 5 8 9 27 9 42 0 20 8 32 30 45 37 21 38 36 1
73 -16 16 -25 31 -20 35 15 9 10 34 -6 34 -8 0 -15 -4 -15 -10z"/>
<path d="M6768 10187 c-46 -25 -64 -74 -74 -202 -7 -82 -6 -89 9 -77 20 17 47
108 47 160 0 53 8 72 30 72 26 0 38 -20 42 -69 5 -70 26 -62 30 11 5 100 0
128 -26 127 -11 0 -38 -10 -58 -22z"/>
<path d="M5365 10090 c-3 -5 1 -10 9 -10 8 0 18 5 21 10 3 6 -1 10 -9 10 -8 0
-18 -4 -21 -10z"/>
<path d="M6997 9972 c-21 -23 -22 -51 -1 -59 20 -7 34 13 34 50 0 32 -10 34
-33 9z"/>
<path d="M5808 9973 c7 -3 16 -2 19 1 4 3 -2 6 -13 5 -11 0 -14 -3 -6 -6z"/>
<path d="M6846 9904 c-8 -21 1 -34 25 -34 24 0 25 26 0 39 -15 8 -20 7 -25 -5z"/>
<path d="M5640 9800 c0 -5 11 -10 24 -10 14 0 28 5 31 10 4 6 -7 10 -24 10
-17 0 -31 -4 -31 -10z"/>
<path d="M5782 9758 c-7 -7 -12 -15 -12 -19 0 -12 54 -18 73 -8 20 11 14 31
-7 23 -8 -3 -17 -1 -21 5 -8 14 -18 14 -33 -1z"/>
<path d="M7295 9719 c-7 -20 9 -72 23 -77 18 -6 15 63 -3 78 -12 10 -16 10
-20 -1z"/>
<path d="M7770 9632 c0 -5 11 -19 25 -32 28 -26 33 -16 9 18 -15 22 -34 30
-34 14z"/>
<path d="M5967 9529 c-4 -16 -1 -20 16 -17 12 2 23 11 25 21 5 25 -34 22 -41
-4z"/>
<path d="M7680 9489 c0 -21 21 -49 38 -49 11 0 13 3 6 8 -6 4 -14 17 -18 30
-7 22 -26 31 -26 11z"/>
<path d="M7962 9440 c2 -22 8 -35 17 -35 23 0 23 20 1 46 l-20 24 2 -35z"/>
<path d="M8045 9460 c3 -5 8 -10 11 -10 2 0 4 5 4 10 0 6 -5 10 -11 10 -5 0
-7 -4 -4 -10z"/>
<path d="M8020 9390 c0 -5 7 -10 16 -10 8 0 12 5 9 10 -3 6 -10 10 -16 10 -5
0 -9 -4 -9 -10z"/>
<path d="M8407 9383 c-11 -23 -6 -96 8 -127 16 -34 28 -42 74 -51 18 -3 19 -1
10 21 -6 16 -5 32 1 44 7 13 6 21 -5 30 -10 8 -12 17 -6 24 9 11 -12 40 -21
30 -3 -2 -13 5 -23 16 -19 21 -31 25 -38 13z"/>
<path d="M8065 9330 c3 -5 8 -10 11 -10 2 0 4 5 4 10 0 6 -5 10 -11 10 -5 0
-7 -4 -4 -10z"/>
<path d="M5796 9275 c-3 -8 -1 -15 4 -15 6 0 10 7 10 15 0 8 -2 15 -4 15 -2 0
-6 -7 -10 -15z"/>
<path d="M5900 9275 c0 -9 -12 -18 -30 -21 -32 -7 -40 -31 -14 -41 18 -7 78
53 69 68 -9 14 -25 11 -25 -6z"/>
<path d="M4520 9231 c0 -12 5 -21 10 -21 6 0 10 6 10 14 0 8 -4 18 -10 21 -5
3 -10 -3 -10 -14z"/>
<path d="M8090 9243 c1 -11 26 -43 33 -43 4 0 1 11 -5 25 -10 23 -28 35 -28
18z"/>
<path d="M8220 9247 c0 -7 37 -47 44 -47 4 0 -1 11 -10 25 -14 21 -34 34 -34
22z"/>
<path d="M5655 9160 c-3 -5 -2 -10 4 -10 5 0 13 5 16 10 3 6 2 10 -4 10 -5 0
-13 -4 -16 -10z"/>
<path d="M8082 9159 c2 -7 10 -15 17 -17 8 -3 12 1 9 9 -2 7 -10 15 -17 17 -8
3 -12 -1 -9 -9z"/>
<path d="M5856 9145 c-16 -12 -17 -15 -4 -15 9 0 18 7 22 15 7 18 6 18 -18 0z"/>
<path d="M8040 9136 c0 -9 4 -16 8 -16 4 0 16 -13 25 -30 25 -41 49 -40 45 3
-2 26 -8 33 -28 35 -14 2 -31 9 -37 14 -10 8 -13 6 -13 -6z"/>
<path d="M5192 9110 c-23 -22 -29 -40 -12 -40 5 0 15 10 21 23 7 12 17 25 23
29 7 5 8 8 0 8 -5 0 -20 -9 -32 -20z"/>
<path d="M5635 9071 c-27 -14 -49 -30 -48 -35 1 -5 15 -15 32 -22 28 -12 32
-11 41 7 6 10 21 19 33 19 12 0 29 4 37 10 12 7 12 12 -4 29 -23 26 -29 25
-91 -8z"/>
<path d="M8200 9087 c0 -13 19 -37 30 -37 14 0 6 28 -12 39 -14 9 -18 8 -18
-2z"/>
<path d="M5405 9070 c-3 -5 1 -10 9 -10 9 0 16 5 16 10 0 6 -4 10 -9 10 -6 0
-13 -4 -16 -10z"/>
<path d="M5440 9036 c0 -19 45 -47 64 -40 14 5 13 10 -6 30 -25 26 -58 32 -58
10z"/>
<path d="M5757 9039 c8 -8 16 -8 30 0 16 9 14 10 -11 11 -22 0 -27 -3 -19 -11z"/>
<path d="M5665 8980 c-19 -8 -19 -9 2 -9 12 -1 29 -4 39 -8 12 -4 15 -2 12 8
-6 17 -26 21 -53 9z"/>
<path d="M5808 8959 c-20 -10 -42 -28 -48 -39 -9 -17 -8 -20 12 -20 13 1 41 7
63 15 23 8 43 10 50 5 6 -5 17 -5 25 0 12 7 12 12 0 34 -16 31 -48 33 -102 5z"/>
<path d="M5135 8957 c-136 -45 -213 -94 -331 -214 -57 -57 -106 -114 -110
-126 -8 -26 -46 -79 -91 -126 -18 -18 -35 -42 -38 -52 -4 -11 -10 -19 -15 -19
-14 0 -61 -112 -67 -161 -4 -35 0 -55 17 -88 12 -24 24 -69 26 -100 5 -60 30
-121 49 -121 7 0 29 -12 50 -26 21 -14 61 -30 89 -35 92 -17 136 -22 136 -15
0 4 -12 33 -27 64 -24 50 -28 71 -31 168 -4 132 11 178 91 284 70 92 141 139
240 157 22 4 27 2 27 -16 0 -14 8 -23 24 -27 36 -9 63 -41 48 -56 -10 -10 -17
-10 -32 0 -11 6 -24 12 -29 12 -18 0 -20 -32 -5 -56 15 -22 15 -26 0 -49 -9
-14 -23 -25 -32 -25 -24 0 -102 -63 -109 -88 -9 -37 -32 -10 -40 49 -6 44 -10
50 -28 47 -25 -3 -38 -43 -41 -125 -2 -46 1 -53 19 -55 15 -2 22 -13 28 -45
24 -138 19 -126 61 -136 29 -7 46 -6 73 7 18 9 40 16 48 16 8 0 15 4 15 9 0 5
14 11 32 15 30 6 45 16 86 59 9 9 21 17 27 17 16 0 58 47 52 57 -3 5 3 16 14
23 10 8 19 20 19 28 0 7 4 11 9 8 5 -3 12 15 15 42 8 69 9 72 14 67 3 -2 13 0
23 6 11 5 45 14 76 20 32 5 70 15 86 21 34 13 52 0 61 -43 5 -25 8 -28 24 -20
10 6 29 7 41 4 13 -3 46 5 82 21 33 15 74 26 92 25 18 -1 49 -1 70 0 35 1 38
3 32 24 -4 12 -16 31 -26 43 -27 29 -24 34 16 34 19 0 35 4 35 9 0 5 -16 19
-35 31 -37 23 -43 38 -23 58 15 15 -4 32 -38 32 -25 0 -44 18 -44 42 0 9 -20
31 -45 48 -25 17 -45 35 -45 40 0 21 -53 70 -76 70 -16 0 -37 13 -55 33 l-30
32 38 11 c42 12 55 33 24 41 -12 3 -21 9 -21 14 0 16 -39 9 -49 -8 -12 -22
-94 -22 -137 0 -16 8 -51 17 -78 21 -27 3 -59 12 -71 20 -25 16 -164 19 -210
3z m-113 -774 c16 -40 19 -63 9 -63 -13 0 -17 9 -25 53 -8 44 0 49 16 10z"/>
<path d="M6670 8945 c0 -8 5 -15 10 -15 6 0 10 7 10 15 0 8 -4 15 -10 15 -5 0
-10 -7 -10 -15z"/>
<path d="M8760 8920 c0 -25 4 -39 10 -35 6 3 10 19 10 35 0 16 -4 32 -10 35
-6 4 -10 -10 -10 -35z"/>
<path d="M4367 8883 c-4 -3 -7 -17 -7 -31 0 -21 2 -22 15 -12 8 7 15 21 15 31
0 19 -11 25 -23 12z"/>
<path d="M6015 8879 c-4 -6 -4 -13 -1 -16 8 -8 36 5 36 17 0 13 -27 13 -35 -1z"/>
<path d="M9266 8850 c3 -14 12 -32 20 -40 24 -25 18 14 -7 41 l-20 24 7 -25z"/>
<path d="M5929 8834 c-11 -14 -9 -15 16 -12 16 1 30 9 33 16 6 18 -33 15 -49
-4z"/>
<path d="M6080 8819 c0 -5 5 -7 10 -4 6 3 10 8 10 11 0 2 -4 4 -10 4 -5 0 -10
-5 -10 -11z"/>
<path d="M6205 8800 c3 -5 12 -10 20 -10 8 0 17 5 20 10 4 6 -5 10 -20 10 -15
0 -24 -4 -20 -10z"/>
<path d="M6160 8790 c0 -5 4 -10 9 -10 6 0 13 5 16 10 3 6 -1 10 -9 10 -9 0
-16 -4 -16 -10z"/>
<path d="M6120 8770 c0 -5 7 -7 15 -4 8 4 15 8 15 10 0 2 -7 4 -15 4 -8 0 -15
-4 -15 -10z"/>
<path d="M9340 8758 c0 -7 5 -20 10 -28 8 -12 10 -11 10 7 0 12 -4 25 -10 28
-5 3 -10 0 -10 -7z"/>
<path d="M6035 8740 c-3 -5 1 -10 9 -10 9 0 16 5 16 10 0 6 -4 10 -9 10 -6 0
-13 -4 -16 -10z"/>
<path d="M9202 8718 c6 -18 28 -21 28 -4 0 9 -7 16 -16 16 -9 0 -14 -5 -12
-12z"/>
<path d="M6150 8702 c0 -4 18 -9 40 -10 23 -2 40 2 40 8 0 5 -18 10 -40 10
-22 0 -40 -4 -40 -8z"/>
<path d="M6018 8638 c8 -8 20 -8 44 -1 l33 11 -44 1 c-34 1 -42 -2 -33 -11z"/>
<path d="M6265 8610 c4 -6 11 -8 16 -5 14 9 11 15 -7 15 -8 0 -12 -5 -9 -10z"/>
<path d="M6195 8600 c-18 -8 -17 -9 7 -9 15 -1 30 4 33 9 7 12 -12 12 -40 0z"/>
<path d="M4205 8560 c-8 -13 -1 -24 14 -19 6 3 7 10 2 18 -6 10 -10 10 -16 1z"/>
<path d="M3810 8530 c0 -5 5 -10 10 -10 6 0 10 5 10 10 0 6 -4 10 -10 10 -5 0
-10 -4 -10 -10z"/>
<path d="M6084 8526 c-25 -19 -12 -30 21 -19 23 7 25 11 13 21 -12 9 -19 9
-34 -2z"/>
<path d="M6160 8530 c0 -5 4 -10 9 -10 6 0 13 5 16 10 3 6 -1 10 -9 10 -9 0
-16 -4 -16 -10z"/>
<path d="M9615 8530 c3 -5 8 -10 11 -10 2 0 4 5 4 10 0 6 -5 10 -11 10 -5 0
-7 -4 -4 -10z"/>
<path d="M4050 8450 c0 -16 5 -30 10 -30 6 0 10 14 10 30 0 17 -4 30 -10 30
-5 0 -10 -13 -10 -30z"/>
<path d="M3965 8460 c-9 -14 4 -52 16 -45 12 8 12 55 0 55 -6 0 -13 -5 -16
-10z"/>
<path d="M6106 8453 c-3 -4 26 -15 66 -25 68 -17 104 -13 76 9 -15 12 -132 25
-142 16z"/>
<path d="M4125 8391 c-3 -11 -2 -28 3 -37 8 -14 10 -12 16 11 8 33 -9 57 -19
26z"/>
<path d="M9734 8388 c-15 -24 -11 -77 7 -93 16 -15 17 -13 15 39 -2 58 -9 76
-22 54z"/>
<path d="M6140 8370 c0 -12 42 -30 71 -30 32 0 21 16 -20 28 -47 15 -51 15
-51 2z"/>
<path d="M4067 8356 c-6 -15 1 -26 15 -26 11 0 10 27 -1 34 -5 3 -11 0 -14 -8z"/>
<path d="M3810 8300 c0 -5 5 -10 11 -10 5 0 7 5 4 10 -3 6 -8 10 -11 10 -2 0
-4 -4 -4 -10z"/>
<path d="M4003 8280 c-3 -17 -9 -33 -14 -36 -4 -2 -6 -10 -4 -17 2 -7 6 -25
10 -41 l6 -29 14 27 c8 15 14 37 13 49 0 12 3 34 7 50 6 21 4 27 -9 27 -10 0
-19 -11 -23 -30z"/>
<path d="M3849 8288 c-2 -17 -1 -90 1 -103 1 -5 8 8 16 30 15 41 12 85 -6 85
-6 0 -11 -6 -11 -12z"/>
<path d="M3770 8265 c0 -7 -8 -19 -17 -24 -16 -9 -16 -10 -1 -11 18 0 48 25
48 41 0 5 -7 9 -15 9 -8 0 -15 -7 -15 -15z"/>
<path d="M9860 8188 c0 -3 6 -20 14 -38 11 -28 14 -30 18 -12 4 13 -1 27 -13
38 -10 9 -19 15 -19 12z"/>
<path d="M3637 8157 c-3 -7 -1 -20 4 -28 6 -11 11 -11 21 -1 10 10 9 15 -4 28
-13 13 -16 13 -21 1z"/>
<path d="M5380 8139 c0 -11 4 -18 10 -14 5 3 7 12 3 20 -7 21 -13 19 -13 -6z"/>
<path d="M5866 8095 c-21 -22 -20 -32 5 -45 26 -14 72 -4 95 21 21 24 20 25
-37 33 -36 5 -50 3 -63 -9z"/>
<path d="M4935 8040 c-3 -5 -1 -10 4 -10 6 0 11 5 11 10 0 6 -2 10 -4 10 -3 0
-8 -4 -11 -10z"/>
<path d="M5832 8028 c5 -15 28 -23 28 -10 0 5 -7 13 -16 16 -10 4 -14 1 -12
-6z"/>
<path d="M6052 8003 c5 -26 44 -29 51 -4 4 18 0 21 -25 21 -23 0 -29 -4 -26
-17z"/>
<path d="M2605 7950 c-3 -5 1 -10 9 -10 9 0 16 5 16 10 0 6 -4 10 -9 10 -6 0
-13 -4 -16 -10z"/>
<path d="M2540 7940 c0 -5 7 -7 15 -4 8 4 15 8 15 10 0 2 -7 4 -15 4 -8 0 -15
-4 -15 -10z"/>
<path d="M5713 7923 c-25 -10 -14 -33 16 -33 37 0 48 15 22 29 -11 6 -21 11
-23 10 -2 0 -9 -3 -15 -6z"/>
<path d="M5822 7891 c-7 -4 2 -12 24 -20 19 -7 38 -11 41 -8 9 9 -53 36 -65
28z"/>
<path d="M5516 7825 c-6 -16 12 -28 35 -24 8 2 31 -3 52 -10 54 -18 72 1 24
24 -20 9 -40 14 -46 11 -5 -4 -12 -2 -16 4 -10 15 -42 12 -49 -5z"/>
<path d="M5688 7813 c-10 -2 -18 -10 -18 -16 0 -8 15 -11 45 -9 46 4 58 15 29
26 -17 6 -29 6 -56 -1z"/>
<path d="M5346 7681 c-7 -11 14 -20 32 -14 6 3 12 9 12 14 0 12 -37 12 -44 0z"/>
<path d="M4440 7626 c0 -9 5 -16 10 -16 6 0 10 4 10 9 0 6 -4 13 -10 16 -5 3
-10 -1 -10 -9z"/>
<path d="M4540 7631 c0 -13 19 -18 51 -13 16 2 26 8 23 13 -7 12 -74 12 -74 0z"/>
<path d="M5323 7634 c-22 -10 -14 -22 22 -34 38 -12 65 -8 65 10 0 6 -4 9 -9
6 -5 -4 -11 -2 -13 3 -4 12 -49 22 -65 15z"/>
<path d="M5026 7601 c-4 -5 15 -13 41 -17 27 -3 62 -15 79 -25 38 -23 44 -23
44 -4 0 8 5 15 10 15 6 0 10 4 10 9 0 16 -175 37 -184 22z"/>
<path d="M5248 7518 c9 -9 15 -9 24 0 9 9 7 12 -12 12 -19 0 -21 -3 -12 -12z"/>
<path d="M7759 8409 c-16 -24 -33 -79 -25 -79 11 0 47 72 44 87 -3 14 -6 13
-19 -8z"/>
<path d="M7446 8345 c-10 -28 -7 -45 9 -45 8 0 15 9 15 20 0 11 0 23 1 27 1
15 -19 13 -25 -2z"/>
<path d="M7618 8276 c-16 -22 -21 -40 -19 -63 2 -23 21 -14 21 10 0 12 7 31
15 41 8 11 15 23 15 28 0 15 -15 8 -32 -16z"/>
<path d="M8241 8247 c-16 -20 -6 -56 10 -40 6 6 9 21 7 33 -3 21 -4 22 -17 7z"/>
<path d="M7941 8194 c0 -11 3 -14 6 -6 3 7 2 16 -1 19 -3 4 -6 -2 -5 -13z"/>
<path d="M7755 8170 c-4 -6 -3 -16 3 -22 13 -13 23 4 13 21 -7 10 -10 10 -16
1z"/>
<path d="M8532 8109 c-10 -24 -22 -52 -25 -62 -4 -10 -11 -16 -16 -13 -9 6
-21 -39 -21 -78 0 -20 4 -22 43 -17 39 6 42 8 45 41 2 19 11 43 20 53 12 13
13 20 4 29 -7 7 -12 23 -12 38 0 52 -17 56 -38 9z"/>
<path d="M7893 8055 c-19 -10 -21 -14 -10 -29 12 -16 14 -16 32 4 23 25 9 42
-22 25z"/>
<path d="M8598 8005 c-5 -43 13 -47 29 -6 10 27 3 41 -22 41 -1 0 -5 -16 -7
-35z"/>
<path d="M7890 7950 c0 -11 5 -20 10 -20 6 0 10 9 10 20 0 11 -4 20 -10 20 -5
0 -10 -9 -10 -20z"/>
<path d="M8605 7871 c-3 -5 -1 -12 5 -16 5 -3 10 1 10 9 0 18 -6 21 -15 7z"/>
<path d="M9170 7640 c0 -5 5 -10 10 -10 6 0 10 5 10 10 0 6 -4 10 -10 10 -5 0
-10 -4 -10 -10z"/>
<path d="M9380 7626 c0 -9 5 -16 10 -16 6 0 10 4 10 9 0 6 -4 13 -10 16 -5 3
-10 -1 -10 -9z"/>
<path d="M9390 7591 c0 -5 5 -13 10 -16 6 -3 10 -2 10 4 0 5 -4 13 -10 16 -5
3 -10 2 -10 -4z"/>
<path d="M9208 7500 c-2 -26 1 -40 8 -40 19 0 31 24 25 49 -11 40 -28 36 -33
-9z"/>
<path d="M9371 7474 c0 -11 3 -14 6 -6 3 7 2 16 -1 19 -3 4 -6 -2 -5 -13z"/>
<path d="M9440 7463 c0 -3 6 -14 13 -22 8 -9 20 -50 27 -91 7 -41 17 -84 23
-95 6 -11 11 -36 12 -55 3 -49 4 -52 15 -45 6 3 10 0 11 -7 1 -7 2 -27 4 -44
3 -37 84 -124 115 -124 19 0 20 2 5 36 -8 20 -15 45 -15 55 0 10 -8 26 -19 36
-10 10 -22 28 -25 40 -4 12 -20 38 -36 58 -18 22 -30 50 -30 66 0 49 -24 122
-47 146 -13 12 -23 29 -23 38 0 8 -7 15 -15 15 -8 0 -15 -3 -15 -7z"/>
<path d="M9390 7410 c0 -5 7 -10 15 -10 8 0 15 5 15 10 0 6 -7 10 -15 10 -8 0
-15 -4 -15 -10z"/>
<path d="M9740 7400 c0 -20 21 -51 31 -45 16 10 10 34 -11 45 -14 8 -20 8 -20
0z"/>
<path d="M9690 7362 c0 -4 14 -16 30 -25 36 -22 41 -6 5 17 -27 18 -35 20 -35
8z"/>
<path d="M9760 7312 c0 -11 22 -32 32 -32 5 0 4 9 -2 20 -11 20 -30 28 -30 12z"/>
<path d="M10015 7220 c3 -5 8 -10 11 -10 2 0 4 5 4 10 0 6 -5 10 -11 10 -5 0
-7 -4 -4 -10z"/>
<path d="M9910 7166 c0 -9 -9 -16 -20 -16 -11 0 -20 5 -20 10 0 6 -7 10 -15
10 -14 0 -14 -3 -2 -27 8 -16 17 -41 21 -57 4 -17 16 -42 27 -57 10 -15 19
-32 19 -37 0 -6 5 -14 12 -18 11 -7 8 30 -8 84 -4 13 -2 22 5 22 6 0 11 -7 11
-15 0 -8 4 -15 9 -15 5 0 13 -17 18 -37 11 -47 40 -53 35 -8 -2 17 -10 44 -19
60 -9 17 -21 40 -27 52 -6 13 -14 23 -18 23 -5 0 -8 6 -8 14 0 8 -4 18 -10 21
-5 3 -10 -1 -10 -9z"/>
<path d="M9993 7113 c9 -20 13 -23 15 -10 2 9 9 17 15 17 16 0 -14 20 -30 20
-10 0 -10 -6 0 -27z"/>
<path d="M10117 7024 c-12 -12 -8 -59 7 -79 13 -19 15 -17 21 18 6 28 4 43 -7
53 -8 8 -17 11 -21 8z"/>
<path d="M9705 6953 c4 -10 9 -26 12 -35 6 -22 33 -32 33 -12 0 19 -29 64 -42
64 -6 0 -7 -8 -3 -17z"/>
<path d="M9950 6948 c0 -7 5 -20 10 -28 8 -12 10 -11 10 7 0 12 -4 25 -10 28
-5 3 -10 0 -10 -7z"/>
<path d="M3620 7560 c0 -5 7 -10 16 -10 8 0 12 5 9 10 -3 6 -10 10 -16 10 -5
0 -9 -4 -9 -10z"/>
<path d="M3999 7510 c29 -25 44 -26 39 -2 -2 11 -14 18 -33 20 l-30 2 24 -20z"/>
<path d="M3920 7446 c0 -17 35 -30 51 -20 9 5 6 11 -6 21 -24 17 -45 17 -45
-1z"/>
<path d="M4026 7295 c4 -8 8 -15 10 -15 2 0 4 7 4 15 0 8 -4 15 -10 15 -5 0
-7 -7 -4 -15z"/>
<path d="M4250 7260 c0 -5 7 -10 16 -10 8 0 12 5 9 10 -3 6 -10 10 -16 10 -5
0 -9 -4 -9 -10z"/>
<path d="M3477 7236 c-7 -16 1 -26 20 -26 7 0 13 9 13 20 0 23 -25 27 -33 6z"/>
<path d="M4220 7239 c0 -5 5 -7 10 -4 6 3 10 8 10 11 0 2 -4 4 -10 4 -5 0 -10
-5 -10 -11z"/>
<path d="M3715 7210 c-3 -5 1 -13 10 -16 22 -9 29 1 11 15 -10 8 -16 9 -21 1z"/>
<path d="M3345 7190 c-3 -6 1 -7 9 -4 18 7 21 14 7 14 -6 0 -13 -4 -16 -10z"/>
<path d="M3109 7108 c-27 -23 -29 -45 -6 -66 28 -26 114 -33 128 -11 12 19 11
66 -1 74 -22 13 -105 15 -121 3z"/>
<path d="M2987 6923 c-13 -12 -7 -42 11 -51 32 -17 105 -24 113 -10 8 13 -6
48 -25 60 -14 10 -90 10 -99 1z"/>
<path d="M3210 6921 c-41 -7 -49 -33 -29 -94 11 -33 15 -37 25 -23 10 15 13
15 24 0 23 -27 86 0 111 48 7 14 3 25 -19 48 -30 31 -44 33 -112 21z"/>
<path d="M3420 6781 c0 -6 5 -13 10 -16 6 -3 10 1 10 9 0 9 -4 16 -10 16 -5 0
-10 -4 -10 -9z"/>
<path d="M2535 6197 c-4 -10 -5 -21 -1 -24 10 -10 18 4 13 24 -4 17 -4 17 -12
0z"/>
<path d="M2680 6198 c0 -18 18 -34 28 -24 3 4 -2 14 -11 23 -16 16 -17 16 -17
1z"/>
<path d="M3049 6154 c-11 -14 -11 -18 4 -29 9 -7 17 -17 17 -22 0 -6 9 -13 20
-16 15 -4 20 0 20 14 0 11 -7 22 -15 25 -8 4 -15 15 -15 25 0 23 -13 24 -31 3z"/>
<path d="M3255 5898 c7 -18 20 -34 29 -36 9 -2 16 -7 16 -12 0 -5 8 -17 19
-27 10 -10 22 -28 25 -40 6 -18 4 -22 -8 -17 -9 3 -16 2 -16 -3 0 -8 48 -83
54 -83 1 0 3 21 4 47 0 26 5 49 11 51 16 5 -5 39 -29 47 -11 3 -19 9 -18 13 6
22 -18 55 -52 72 -51 26 -51 26 -35 -12z"/>
<path d="M3280 5806 c0 -18 17 -29 30 -21 8 5 7 11 -1 21 -15 18 -29 18 -29 0z"/>
<path d="M2850 5683 c0 -5 5 -15 10 -23 8 -12 10 -11 10 8 0 12 -4 22 -10 22
-5 0 -10 -3 -10 -7z"/>
<path d="M2870 5571 c0 -10 7 -21 15 -25 16 -6 19 3 9 28 -8 22 -24 20 -24 -3z"/>
<path d="M3150 5542 c0 -10 11 -29 24 -41 l24 -23 7 21 c5 16 0 27 -17 41 -29
24 -38 25 -38 2z"/>
<path d="M7686 6395 c7 -16 39 -20 48 -6 6 9 -16 21 -40 21 -8 0 -11 -6 -8
-15z"/>
<path d="M7776 6391 c-3 -4 1 -17 9 -27 10 -15 16 -16 26 -7 6 6 9 19 6 27 -7
17 -32 22 -41 7z"/>
<path d="M7864 6269 c-3 -6 -2 -15 2 -19 12 -12 38 5 30 19 -9 14 -23 14 -32
0z"/>
<path d="M7790 6152 c0 -11 -2 -27 -5 -35 -5 -10 1 -13 24 -9 24 3 30 0 33
-19 2 -12 9 -25 17 -27 11 -4 13 4 7 38 -5 29 -3 46 5 51 7 4 2 7 -12 7 -13 0
-34 3 -46 7 -19 6 -23 4 -23 -13z"/>
<path d="M8036 6155 c-9 -26 -7 -35 8 -35 23 0 30 20 14 37 -14 13 -16 13 -22
-2z"/>
<path d="M8582 6118 c6 -18 28 -21 28 -4 0 9 -7 16 -16 16 -9 0 -14 -5 -12
-12z"/>
<path d="M8562 5989 c1 -12 9 -24 16 -27 9 -3 13 3 10 19 -1 12 -9 24 -16 27
-9 3 -13 -3 -10 -19z"/>
<path d="M8445 5970 c-3 -5 -1 -10 4 -10 6 0 11 5 11 10 0 6 -2 10 -4 10 -3 0
-8 -4 -11 -10z"/>
<path d="M8700 5939 c0 -24 23 -21 28 4 2 10 -3 17 -12 17 -10 0 -16 -9 -16
-21z"/>
<path d="M8633 5913 c-15 -6 -17 -43 -3 -43 12 0 24 25 18 38 -1 5 -9 7 -15 5z"/>
<path d="M8917 5863 c-4 -3 -7 -17 -7 -30 0 -17 5 -22 20 -20 28 5 33 13 20
36 -11 22 -22 26 -33 14z"/>
<path d="M8661 5784 c-6 -15 -9 -29 -7 -32 8 -8 33 17 39 38 8 30 -18 25 -32
-6z"/>
<path d="M9115 5677 c-8 -70 -3 -81 42 -106 19 -9 24 -8 33 8 14 27 13 31 -9
31 -15 0 -19 10 -24 52 -4 28 -13 58 -21 66 -12 13 -15 6 -21 -51z"/>
<path d="M8650 5715 c0 -8 7 -15 15 -15 9 0 12 6 9 15 -4 8 -10 15 -15 15 -5
0 -9 -7 -9 -15z"/>
<path d="M9096 5491 c-4 -6 -3 -18 2 -27 8 -15 10 -14 16 2 8 20 -8 42 -18 25z"/>
<path d="M3980 5131 c0 -6 5 -13 10 -16 6 -3 10 1 10 9 0 9 -4 16 -10 16 -5 0
-10 -4 -10 -9z"/>
<path d="M8095 4520 c-3 -5 -1 -10 4 -10 6 0 11 5 11 10 0 6 -2 10 -4 10 -3 0
-8 -4 -11 -10z"/>
<path d="M7540 4320 c-8 -5 -12 -11 -9 -14 3 -3 14 1 25 9 21 16 8 20 -16 5z"/>
<path d="M7206 4297 c-10 -15 -16 -31 -12 -34 11 -11 38 23 34 43 -3 17 -6 15
-22 -9z"/>
<path d="M7137 4234 c-8 -8 1 -24 14 -24 5 0 9 7 9 15 0 15 -12 20 -23 9z"/>
<path d="M8305 3320 c3 -5 10 -10 16 -10 5 0 9 5 9 10 0 6 -7 10 -16 10 -8 0
-12 -4 -9 -10z"/>
<path d="M8596 3248 c3 -7 22 -26 42 -43 l37 -30 -29 35 c-31 38 -60 60 -50
38z"/>
<path d="M8700 3146 c0 -2 7 -6 15 -10 8 -3 15 -1 15 4 0 6 -7 10 -15 10 -8 0
-15 -2 -15 -4z"/>
<path d="M7340 3041 c0 -14 42 -41 52 -35 12 8 -21 44 -39 44 -7 0 -13 -4 -13
-9z"/>
<path d="M8870 3000 c0 -11 7 -20 15 -20 13 0 14 4 5 20 -6 11 -13 20 -15 20
-3 0 -5 -9 -5 -20z"/>
<path d="M7460 2951 c0 -10 52 -31 62 -25 15 10 -11 32 -37 32 -14 0 -25 -3
-25 -7z"/>
<path d="M7900 2939 c0 -5 4 -9 9 -9 5 0 17 -3 27 -7 11 -4 15 -3 11 4 -9 14
-47 24 -47 12z"/>
<path d="M8150 2920 c0 -5 5 -10 11 -10 5 0 7 5 4 10 -3 6 -8 10 -11 10 -2 0
-4 -4 -4 -10z"/>
<path d="M7960 2891 c0 -21 13 -41 26 -41 28 0 13 -18 -18 -23 -34 -5 -59 4
-90 33 -14 13 -34 16 -95 14 -43 -2 -79 -3 -81 -3 -1 -1 2 -10 8 -21 15 -28 4
-43 -21 -30 -15 9 -19 7 -19 -5 0 -8 -6 -15 -14 -15 -9 0 -12 7 -9 20 5 17 0
20 -26 20 -17 0 -31 5 -31 11 0 6 7 9 15 5 18 -7 20 5 3 22 -17 17 -41 15 -34
-3 6 -17 -29 -22 -39 -5 -8 13 -25 13 -25 -1 0 -18 52 -74 69 -74 9 0 16 -7
16 -15 0 -10 -8 -14 -22 -12 -27 4 -37 -12 -23 -38 9 -17 8 -22 -7 -27 -10 -4
-28 -17 -40 -30 -28 -29 -38 -29 -70 3 -20 20 -30 24 -42 17 -25 -16 -19 -35
19 -61 45 -30 54 -55 29 -78 -10 -9 -19 -21 -19 -26 0 -14 40 -9 46 7 4 8 14
15 23 15 42 1 66 51 39 79 -11 10 -10 11 5 6 9 -4 17 -3 17 3 0 5 19 10 41 10
23 1 46 5 52 11 5 5 16 7 23 4 26 -10 64 6 64 27 0 18 5 20 43 14 45 -7 45 -7
65 -5 17 1 15 41 -2 41 -8 0 -16 6 -19 13 -4 10 2 13 18 9 13 -2 25 -12 28
-22 5 -19 56 -27 237 -35 59 -3 99 -10 109 -19 9 -7 59 -21 111 -31 52 -9 104
-22 115 -28 11 -6 38 -13 60 -16 26 -4 40 -11 40 -21 0 -8 14 -21 30 -29 17
-8 34 -20 38 -28 4 -7 15 -13 23 -13 12 0 12 3 2 20 -7 11 -19 20 -26 20 -8 0
-12 6 -9 13 5 14 48 11 58 -4 13 -21 137 -84 147 -75 8 8 -57 74 -80 82 -10 3
-18 12 -18 19 0 15 -58 51 -76 47 -6 -1 -40 27 -75 64 -42 44 -85 76 -125 95
-39 19 -64 37 -67 50 -6 21 -6 21 -36 3 -24 -14 -33 -16 -43 -6 -20 20 -36 14
-30 -13 4 -22 1 -25 -25 -25 -16 0 -37 6 -48 13 -26 18 -105 37 -105 26 0 -5
9 -9 20 -9 11 0 20 -7 20 -15 0 -25 -22 -17 -82 30 -60 47 -68 51 -68 36z
m-336 -190 c10 -15 -33 -20 -45 -5 -9 11 -7 14 14 14 14 0 28 -4 31 -9z"/>
<path d="M8500 2790 c0 -5 5 -10 10 -10 6 0 10 5 10 10 0 6 -4 10 -10 10 -5 0
-10 -4 -10 -10z"/>
<path d="M7460 2736 c0 -10 9 -16 21 -16 24 0 21 23 -4 28 -10 2 -17 -3 -17
-12z"/>
<path d="M6805 2730 c3 -5 8 -10 11 -10 2 0 4 5 4 10 0 6 -5 10 -11 10 -5 0
-7 -4 -4 -10z"/>
<path d="M6730 2685 c-8 -10 -8 -15 0 -20 8 -5 8 -11 -1 -21 -9 -11 -9 -21 -1
-37 5 -12 13 -30 15 -39 4 -11 13 -15 26 -11 12 3 21 1 21 -6 0 -6 -7 -11 -16
-11 -9 0 -14 -7 -12 -17 3 -15 14 -18 67 -16 87 2 99 8 76 33 -10 11 -29 20
-43 20 -14 0 -32 8 -41 18 -9 11 -27 24 -39 31 -23 12 -24 22 -8 62 9 21 -29
33 -44 14z"/>
<path d="M7860 2675 c0 -9 6 -12 15 -9 8 4 15 7 15 9 0 2 -7 5 -15 9 -9 3 -15
0 -15 -9z"/>
<path d="M7361 2604 c0 -11 3 -14 6 -6 3 7 2 16 -1 19 -3 4 -6 -2 -5 -13z"/>
<path d="M7059 2589 c13 -11 26 -17 29 -15 7 8 -25 36 -40 36 -7 -1 -3 -9 11
-21z"/>
<path d="M7330 2590 c0 -5 5 -10 10 -10 6 0 10 5 10 10 0 6 -4 10 -10 10 -5 0
-10 -4 -10 -10z"/>
<path d="M7216 2555 c-3 -8 8 -27 25 -45 29 -29 31 -29 56 -13 15 10 21 19 14
21 -8 3 -6 9 6 18 16 12 14 13 -20 14 -21 0 -47 4 -57 10 -13 7 -19 6 -24 -5z"/>
<path d="M7092 2482 c-23 -7 -12 -19 28 -31 23 -7 40 -18 40 -26 0 -8 7 -15
15 -15 22 0 18 28 -5 35 -11 3 -20 12 -20 20 0 13 -37 24 -58 17z"/>
<path d="M6822 2438 c3 -7 13 -15 22 -16 12 -3 17 1 14 10 -3 7 -13 15 -22 16
-12 3 -17 -1 -14 -10z"/>
<path d="M7704 2368 c-9 -15 7 -28 35 -28 25 0 51 15 51 31 0 9 -81 6 -86 -3z"/>
<path d="M7780 2320 c0 -5 5 -10 10 -10 6 0 10 5 10 10 0 6 -4 10 -10 10 -5 0
-10 -4 -10 -10z"/>
<path d="M9120 2310 c0 -5 5 -10 10 -10 6 0 10 5 10 10 0 6 -4 10 -10 10 -5 0
-10 -4 -10 -10z"/>
<path d="M8050 2285 c0 -8 7 -15 16 -15 14 0 14 3 4 15 -7 8 -14 15 -16 15 -2
0 -4 -7 -4 -15z"/>
<path d="M8116 2284 c-8 -22 1 -31 16 -16 9 9 9 15 1 23 -7 7 -12 5 -17 -7z"/>
<path d="M7960 2272 c0 -12 39 -42 56 -42 13 0 12 4 -3 25 -17 23 -53 35 -53
17z"/>
<path d="M8370 2261 c0 -13 72 -71 87 -71 25 0 12 28 -25 54 -39 27 -62 33
-62 17z"/>
<path d="M7500 2241 c0 -5 18 -18 40 -29 43 -21 55 -9 22 21 -20 18 -62 23
-62 8z"/>
<path d="M7207 2234 c-9 -10 2 -24 19 -24 8 0 14 7 14 15 0 15 -21 21 -33 9z"/>
<path d="M8587 2223 c-12 -11 -8 -23 8 -23 8 0 15 7 15 15 0 16 -12 20 -23 8z"/>
<path d="M7462 2198 c7 -19 38 -22 38 -4 0 10 -9 16 -21 16 -12 0 -19 -5 -17
-12z"/>
<path d="M8490 2150 c0 -11 11 -26 41 -58 9 -9 19 -28 23 -42 8 -33 23 -56 32
-48 12 13 -39 116 -68 138 -15 11 -28 16 -28 10z"/>
<path d="M8690 2150 c0 -5 9 -14 20 -20 22 -12 27 -1 8 18 -14 14 -28 16 -28
2z"/>
<path d="M8005 2140 c-3 -5 -1 -10 4 -10 6 0 11 5 11 10 0 6 -2 10 -4 10 -3 0
-8 -4 -11 -10z"/>
<path d="M9140 2110 c0 -5 5 -10 10 -10 6 0 10 5 10 10 0 6 -4 10 -10 10 -5 0
-10 -4 -10 -10z"/>
<path d="M9380 2027 c0 -19 16 -31 24 -18 3 5 -1 14 -9 21 -12 10 -15 10 -15
-3z"/>
<path d="M9664 1973 c-14 -15 -13 -17 17 -30 37 -16 40 -14 33 14 -8 29 -30
36 -50 16z"/>
<path d="M9400 1910 c6 -11 15 -20 20 -20 17 0 50 -34 50 -52 0 -10 14 -24 30
-33 48 -25 38 4 -23 61 -60 57 -94 77 -77 44z"/>
<path d="M9550 1863 c0 -5 7 -18 15 -29 12 -16 14 -16 15 -3 0 9 -7 22 -15 29
-8 7 -15 8 -15 3z"/>
<path d="M5927 2573 c-4 -3 -7 -11 -7 -17 0 -6 5 -5 12 2 6 6 9 14 7 17 -3 3
-9 2 -12 -2z"/>
<path d="M5190 2390 c0 -5 7 -7 15 -4 8 4 15 8 15 10 0 2 -7 4 -15 4 -8 0 -15
-4 -15 -10z"/>
<path d="M3482 1628 c-16 -16 -15 -28 2 -28 16 0 29 27 17 34 -4 3 -13 0 -19
-6z"/>
<path d="M6142 1764 c-7 -8 -12 -19 -10 -23 2 -5 11 2 21 15 19 26 10 33 -11
8z"/>
<path d="M4522 1718 c-19 -19 -14 -30 11 -26 12 2 22 9 22 17 0 19 -18 24 -33
9z"/>
<path d="M4770 1700 c0 -5 5 -10 10 -10 6 0 10 5 10 10 0 6 -4 10 -10 10 -5 0
-10 -4 -10 -10z"/>
<path d="M5841 1664 c0 -11 3 -14 6 -6 3 7 2 16 -1 19 -3 4 -6 -2 -5 -13z"/>
<path d="M4444 1607 c2 -18 -2 -31 -10 -34 -16 -6 -18 -29 -4 -38 12 -7 42 57
31 65 -5 3 -11 12 -15 20 -3 8 -4 2 -2 -13z"/>
<path d="M4780 1590 c-8 -5 -12 -11 -9 -14 2 -3 11 -1 19 4 8 5 12 11 9 14 -2
3 -11 1 -19 -4z"/>
<path d="M5400 1553 c0 -14 49 -69 50 -56 0 22 -23 63 -37 63 -7 0 -13 -3 -13
-7z"/>
<path d="M4845 1520 c3 -5 8 -10 11 -10 2 0 4 5 4 10 0 6 -5 10 -11 10 -5 0
-7 -4 -4 -10z"/>
<path d="M5481 1484 c0 -11 3 -14 6 -6 3 7 2 16 -1 19 -3 4 -6 -2 -5 -13z"/>
<path d="M5837 1473 c-4 -3 -7 -11 -7 -17 0 -6 5 -5 12 2 6 6 9 14 7 17 -3 3
-9 2 -12 -2z"/>
<path d="M8350 1056 c0 -15 45 -27 68 -18 12 4 12 8 -4 19 -24 17 -64 17 -64
-1z"/>
<path d="M8790 1026 c0 -12 29 -26 55 -26 12 1 -34 40 -46 40 -5 0 -9 -6 -9
-14z"/>
<path d="M8440 991 c0 -10 30 -24 37 -17 3 3 2 9 -2 15 -8 13 -35 15 -35 2z"/>
<path d="M7242 928 c3 -7 13 -15 22 -16 12 -3 17 1 14 10 -3 7 -13 15 -22 16
-12 3 -17 -1 -14 -10z"/>
<path d="M8420 921 c0 -6 4 -13 10 -16 6 -3 7 1 4 9 -7 18 -14 21 -14 7z"/>
<path d="M7005 861 c-3 -5 2 -11 10 -15 8 -3 17 -1 20 3 3 5 -2 11 -10 15 -8
3 -17 1 -20 -3z"/>
<path d="M8020 862 c0 -7 4 -12 10 -12 5 0 12 -11 16 -24 3 -14 12 -27 20 -30
24 -9 15 19 -16 49 -16 16 -30 23 -30 17z"/>
<path d="M8270 821 c0 -14 9 -20 34 -23 33 -4 34 -3 17 19 -20 28 -51 30 -51
4z"/>
<path d="M9625 810 c3 -5 11 -10 16 -10 6 0 7 5 4 10 -3 6 -11 10 -16 10 -6 0
-7 -4 -4 -10z"/>
<path d="M9402 803 c-33 -6 -25 -39 8 -35 14 1 29 -3 35 -11 5 -7 25 -19 43
-26 17 -7 32 -17 32 -22 0 -5 7 -9 16 -9 13 0 13 4 -3 32 -42 72 -63 84 -131
71z"/>
<path d="M9290 794 c0 -13 68 -74 83 -74 10 0 29 -7 42 -16 24 -16 25 -15 25
5 0 11 -5 21 -11 21 -18 0 -99 40 -99 49 0 5 -9 11 -20 14 -11 3 -20 3 -20 1z"/>
<path d="M6930 765 c0 -8 5 -15 10 -15 6 0 10 7 10 15 0 8 -4 15 -10 15 -5 0
-10 -7 -10 -15z"/>
<path d="M6980 770 c0 -5 9 -10 21 -10 11 0 17 5 14 10 -3 6 -13 10 -21 10 -8
0 -14 -4 -14 -10z"/>
<path d="M9238 733 c7 -3 16 -2 19 1 4 3 -2 6 -13 5 -11 0 -14 -3 -6 -6z"/>
<path d="M9372 654 c10 -10 20 -16 22 -13 3 3 -5 11 -17 18 -21 13 -21 12 -5
-5z"/>
<path d="M6398 537 c-3 -15 -2 -27 3 -27 13 0 17 14 9 35 -6 17 -7 16 -12 -8z"/>
<path d="M3976 315 c-17 -13 -16 -14 17 -20 44 -9 63 1 43 21 -18 18 -36 17
-60 -1z"/>
<path d="M5235 320 c3 -5 10 -10 16 -10 5 0 9 5 9 10 0 6 -7 10 -16 10 -8 0
-12 -4 -9 -10z"/>
<path d="M4960 276 c0 -18 27 -39 40 -31 5 3 10 15 10 26 0 14 -7 19 -25 19
-15 0 -25 -6 -25 -14z"/>
<path d="M2973 259 c-7 -7 -13 -18 -13 -25 0 -6 -9 -23 -20 -37 -18 -23 -19
-57 -1 -57 11 0 53 98 49 115 -2 13 -5 14 -15 4z"/>
<path d="M4880 260 c0 -5 5 -10 10 -10 6 0 10 5 10 10 0 6 -4 10 -10 10 -5 0
-10 -4 -10 -10z"/>
<path d="M4290 250 c0 -5 9 -10 20 -10 11 0 20 5 20 10 0 6 -9 10 -20 10 -11
0 -20 -4 -20 -10z"/>
<path d="M3726 184 c-33 -31 -35 -58 -3 -49 20 7 56 42 57 56 0 19 -30 14 -54
-7z"/>
<path d="M3610 139 c0 -12 5 -19 12 -17 18 6 20 25 3 31 -10 5 -15 0 -15 -14z"/>
<path d="M3607 36 c-32 -30 -33 -36 -9 -36 11 0 24 12 31 26 16 36 9 39 -22
10z"/>
</g>
</svg>
